<?xml version="1.0" ?><svg id="Layer_1" style="enable-background:new 0 0 120 120;" version="1.1" viewBox="0 0 120 120" xml:space="preserve" xmlns="http://www.w3.org/2000/svg" xmlns:xlink="http://www.w3.org/1999/xlink"><style type="text/css">
	.st0{fill:#FFB54A;}
	.st1{fill:#FFFFFF;}
	.st2{fill:#D5EEFF;}
	.st3{fill:#FF5E74;}
	.st4{fill:#66ABFF;}
	.st5{fill:#8BE086;}
</style><g><path class="st0" d="M98.2,56.3h-0.8c-1.8-17.7-15.9-31.8-33.6-33.5v-0.9c0-2.1-1.7-3.7-3.7-3.7s-3.7,1.7-3.7,3.7v0.9   c-17.7,1.7-31.8,15.8-33.6,33.5h-0.8c-2.1,0-3.7,1.7-3.7,3.7s1.7,3.7,3.7,3.7h0.8c1.7,17.8,15.8,32,33.6,33.7v0.7   c0,2.1,1.7,3.7,3.7,3.7s3.7-1.7,3.7-3.7v-0.7c17.8-1.7,31.9-15.9,33.6-33.7h0.8c2.1,0,3.7-1.7,3.7-3.7S100.2,56.3,98.2,56.3z"/><circle class="st1" cx="60" cy="60.1" r="30.9"/><g><path class="st2" d="M60,36.4c-13.1,0-23.7,10.6-23.7,23.7S46.9,83.8,60,83.8s23.7-10.6,23.7-23.7S73.1,36.4,60,36.4z M60,82.8    c-12.5,0-22.7-10.2-22.7-22.7c0-12.5,10.2-22.7,22.7-22.7c12.5,0,22.7,10.2,22.7,22.7C82.7,72.6,72.5,82.8,60,82.8z"/><path class="st2" d="M60,43.5c-9.2,0-16.6,7.4-16.6,16.6c0,9.2,7.4,16.6,16.6,16.6c9.2,0,16.6-7.4,16.6-16.6    C76.6,50.9,69.2,43.5,60,43.5z M60,75.7c-8.6,0-15.6-7-15.6-15.6s7-15.6,15.6-15.6s15.6,7,15.6,15.6S68.6,75.7,60,75.7z"/><path class="st2" d="M60,49.7c-5.7,0-10.4,4.7-10.4,10.4c0,5.7,4.7,10.4,10.4,10.4c5.7,0,10.4-4.7,10.4-10.4    C70.4,54.3,65.7,49.7,60,49.7z M60,69.5c-5.2,0-9.4-4.2-9.4-9.4s4.2-9.4,9.4-9.4s9.4,4.2,9.4,9.4S65.2,69.5,60,69.5z"/></g><path class="st3" d="M68.8,46.5L38.6,59.3c-2.4,1-2.2,4.6,0.4,5.2l14,3.4l5,13.5c0.9,2.5,4.5,2.4,5.2-0.2l9.3-31.5   C73.2,47.5,71,45.6,68.8,46.5z"/><circle class="st4" cx="59.5" cy="36.8" r="1.8"/><circle class="st5" cx="75.1" cy="66.2" r="1.8"/></g></svg>