<?xml version="1.0" ?><svg id="Layer_1" style="enable-background:new 0 0 120 120;" version="1.1" viewBox="0 0 120 120" xml:space="preserve" xmlns="http://www.w3.org/2000/svg" xmlns:xlink="http://www.w3.org/1999/xlink"><style type="text/css">
	.st0{fill:#5EACDD;}
	.st1{fill:#DAE7EF;}
	.st2{opacity:5.000000e-02;}
	.st3{fill:#70C4FF;}
	.st4{fill:#FFFFFF;}
</style><g><g><path class="st0" d="M46.6,38.8l3.4-3.4c0.3-0.3,0.3-0.8,0-1.1l-2-2c-0.3-0.3-0.8-0.3-1.1,0l-3.4,3.4c-0.3,0.3-0.3,0.8,0,1.1l2,2    C45.8,39.1,46.3,39.1,46.6,38.8z"/><path class="st0" d="M56.9,35l-6.1,6.1c-0.3,0.3-0.3,0.8,0,1.1l2,2c0.3,0.3,0.8,0.3,1.1,0l6.1-6.1c0.3-0.3,0.3-0.8,0-1.1l-2-2    C57.7,34.6,57.2,34.6,56.9,35z"/><path class="st0" d="M84.6,70l-3.4,3.4c-0.3,0.3-0.3,0.8,0,1.1l2,2c0.3,0.3,0.8,0.3,1.1,0l3.4-3.4c0.3-0.3,0.3-0.8,0-1.1l-2-2    C85.4,69.7,84.9,69.7,84.6,70z"/><path class="st0" d="M81.9,60l-6.1,6.1c-0.3,0.3-0.3,0.8,0,1.1l2,2c0.3,0.3,0.8,0.3,1.1,0l6.1-6.1c0.3-0.3,0.3-0.8,0-1.1l-2-2    C82.7,59.7,82.2,59.7,81.9,60z"/></g><g><path class="st1" d="M26.6,72.2c-0.4-0.1-0.8,0-1,0.3l-2.4,2.4c-0.6,0.6-0.4,1.5,0.3,1.9l13.3,5.9c0.3,0.1,0.5,0.3,0.6,0.6    l5.9,13.3c0.3,0.7,1.3,0.9,1.9,0.3l2.4-2.4c0.3-0.3,0.4-0.7,0.3-1l-3.6-16.7c-0.1-0.4-0.4-0.8-0.9-0.9L26.6,72.2z"/><path class="st1" d="M76.4,42.5l-37.9-8.2c-0.5-0.1-1,0-1.4,0.4l-6.7,6.7c-0.8,0.8-0.5,2.1,0.5,2.5l30.9,13.7    c0.4,0.2,0.6,0.4,0.8,0.8l13.7,30.9c0.4,1,1.7,1.2,2.5,0.5l6.7-6.7c0.4-0.4,0.5-0.9,0.4-1.4l-8.2-37.9C77.4,43,77,42.6,76.4,42.5z    "/></g><g class="st2"><path d="M44.4,95.3c0.3,0.7,1.3,0.9,1.8,0.3l-1.2,1.2c-0.6,0.6-1.5,0.4-1.9-0.3l-5.9-13.3c-0.1-0.3-0.3-0.5-0.6-0.6l-13.3-5.9    c-0.7-0.3-0.9-1.3-0.3-1.9l1.2-1.2c-0.6,0.6-0.4,1.5,0.3,1.8L38,81.5c0.3,0.1,0.5,0.3,0.6,0.6L44.4,95.3z"/><path d="M77.4,87.9c0.4,1,1.7,1.2,2.5,0.5l-1.2,1.2c-0.8,0.8-2.1,0.5-2.5-0.5L62.5,58.3c-0.2-0.4-0.4-0.6-0.8-0.8L30.9,43.8    c-1-0.4-1.2-1.7-0.5-2.5l1.2-1.2c-0.8,0.8-0.5,2.1,0.5,2.5l30.9,13.7c0.3,0.2,0.6,0.4,0.8,0.8L77.4,87.9z"/></g><path class="st3" d="M92.4,39.4L38.3,85.9c-1.3,1.1-4.1,2-5.1,0.9l0,0c-1.1-1.1-0.2-3.8,0.9-5.1l46.5-54.1c2-2.3,4.8-3.8,7.6-4.2   l5-0.7c2.4-0.3,4.2,1.5,3.9,3.9l-0.7,5C96.1,34.6,94.7,37.3,92.4,39.4z"/><g><path class="st4" d="M91.2,35.2c-0.1,0.1-0.3,0.2-0.4,0.1c-0.3,0-0.5-0.3-0.4-0.6c0.1-0.8-0.5-2.4-1.6-3.5    c-1.1-1.1-2.6-1.7-3.4-1.7c-0.3,0-0.5-0.2-0.5-0.5c0-0.3,0.2-0.5,0.5-0.5c1.1,0,2.8,0.6,4.2,1.9c1.5,1.5,2.1,3.3,1.9,4.4    C91.4,35.1,91.3,35.2,91.2,35.2z"/></g><path class="st2" d="M97.2,26.7l-0.7,5c-0.4,2.9-1.9,5.6-4.2,7.6L38.3,85.9c-1.3,1.1-4.1,2-5.2,0.9l54.5-54.5c0,0,4.5-4.4,7.2-9.4   C96.4,23.4,97.4,24.9,97.2,26.7z"/></g></svg>