<?xml version="1.0" ?><svg viewBox="0 0 1000 1000" xmlns="http://www.w3.org/2000/svg"><path d="m560.05 385.25a290.64 290.64 0 0 1 -11-81.15 7.6 7.6 0 0 1 .62-3.58 7.35 7.35 0 0 1 3.39-2.79 115.89 115.89 0 0 1 17.18-6.52l50.44-16.14c5.14-1.64 10.65-3.29 15.83-1.76 3.37 1 6.21 3.25 9.16 5.18 8.14 5.32 17.53 8.3 26.56 11.93a12.61 12.61 0 0 1 5.12 3.13c1.55 1.83 2 4.33 2.31 6.7l8.87 59.81c.76 5.1 1.52 10.34.43 15.39-1.46 6.74-6.13 12.45-11.73 16.46s-12.13 6.53-18.63 8.82a359.21 359.21 0 0 1 -72.6 17.27" fill="#fff"/><path d="m564.47 358a204.35 204.35 0 0 1 24.87-7.09c1-.22.57-1.71-.42-1.52a145.84 145.84 0 0 0 -24.85 7.16c-.9.34-.52 1.79.4 1.45z" fill="#18c4ff"/><path d="m565.64 365.83a200.47 200.47 0 0 1 24.88-7.09c1-.23.56-1.71-.42-1.52a146.21 146.21 0 0 0 -24.86 7.16c-.89.34-.51 1.78.4 1.45z" fill="#18c4ff"/><path d="m689 375.45c1.09-5.05.33-10.29-.43-15.39q-4.43-29.91-8.87-59.81c-.35-2.37-.76-4.87-2.31-6.7a12.61 12.61 0 0 0 -5.12-3.13c-9-3.63-18.42-6.61-26.56-11.93-3-1.93-5.79-4.18-9.16-5.18a17.22 17.22 0 0 0 -7.32-.39c-.68 33.52 5.86 66.94 12.4 99.93.51 2.53 1 5.16 2.56 7.25a13.27 13.27 0 0 0 6.18 4.33c6 2.29 12.81 2 19.12.61a72 72 0 0 0 19-7.63c.18-.64.36-1.3.51-1.96z"/><path d="m560.77 385.05a289.89 289.89 0 0 1 -8.3-41.18q-1.29-10.25-1.87-20.56-.29-5.28-.39-10.57a78 78 0 0 1 0-10.14c.37-3.23 4.26-4.4 6.83-5.52 3.23-1.4 6.57-2.55 9.91-3.65 6.73-2.2 13.5-4.32 20.25-6.48l20.46-6.55 10.47-3.35a86.27 86.27 0 0 1 9.84-2.82 16.59 16.59 0 0 1 10 .77c2.86 1.27 5.32 3.27 7.95 4.93a98.92 98.92 0 0 0 17.26 8.14c3.07 1.19 6.15 2.32 9.19 3.57a12.25 12.25 0 0 1 3.7 2.11 7.76 7.76 0 0 1 2.08 4c.8 3.32 1.09 6.81 1.59 10.19l1.6 10.88q3.13 21.23 6.26 42.46c.95 6.44 1.51 13-1.52 19-2.7 5.36-7.26 9.51-12.36 12.57-5.63 3.37-11.88 5.55-18.06 7.67q-9.71 3.32-19.57 6.08a358.85 358.85 0 0 1 -40.49 8.83c-3.29.52-6.58 1-9.87 1.56-1.11.18-.87 2.09.27 2 14.2-1.39 28.35-4.41 42.17-7.91q10.51-2.67 20.85-6a191.89 191.89 0 0 0 19.45-7c11.17-5 21.62-13.78 22.21-26.85a53.93 53.93 0 0 0 -.75-10.14c-.54-3.76-1.12-7.52-1.68-11.28l-3.33-22.23-3.32-22.24c-.5-3.32-.65-7-1.91-10.11-1.14-2.81-3.39-4.37-6.09-5.51-6.18-2.63-12.58-4.7-18.68-7.52a68.3 68.3 0 0 1 -9-4.95 42.82 42.82 0 0 0 -7.88-4.65c-6.57-2.57-13.65.09-20 2.12l-21.42 6.85-21.62 6.98c-6.83 2.19-13.78 4.2-20.31 7.21-2.48 1.14-5.45 2.37-6.32 5.21a15.58 15.58 0 0 0 -.34 4.57q0 2.88.06 5.76.23 10.81 1.26 21.59a291.93 291.93 0 0 0 7.26 42.35q1.27 5.13 2.73 10.21a.75.75 0 0 0 1.45-.4z"/><path d="m383.83 627.72c84.17 55.66 188.36 80.28 288.53 68.14 9.41-1.14 19.84-3.22 25.25-11 4.53-6.5 4.12-15.52.74-22.68s-9.29-12.82-15.4-17.86c-23.55-19.41-51.68-32.32-79.45-44.93-18.35-8.35-37-16.8-57-19.7s-41.74.47-57.09 13.53"/><path d="m383.49 628.29a424.75 424.75 0 0 0 51.26 29.13 430.71 430.71 0 0 0 54.52 21.66 438.32 438.32 0 0 0 115.89 20.55 421.83 421.83 0 0 0 58.94-1.73c8.52-.86 17.57-1.44 25.44-5.1a20.88 20.88 0 0 0 12.54-19.51c-.09-9.4-5.32-17.51-11.79-23.94-7.11-7.06-15.45-13.05-23.8-18.54-17.12-11.28-35.66-20.18-54.26-28.72-19.09-8.76-38.37-18.23-59.08-22.47-17.82-3.64-37.29-3-53.71 5.47a58.26 58.26 0 0 0 -10.83 7.3c-1.16 1 .52 2.65 1.68 1.67 13.78-11.62 32.73-15.22 50.32-13.81 20.5 1.64 39.79 10 58.32 18.36 18.2 8.24 36.5 16.46 53.82 26.47a225.28 225.28 0 0 1 24.82 16.42c7.49 5.77 15.31 12.14 19.56 20.79 3.88 7.88 3.94 18.24-2.77 24.62-6.05 5.75-15.13 7-23.06 8a423.43 423.43 0 0 1 -57.3 2.83 430.82 430.82 0 0 1 -57.16-4.81 437 437 0 0 1 -110-31.85 425.49 425.49 0 0 1 -50.89-26.47q-6-3.63-11.78-7.46c-.72-.47-1.37.67-.67 1.14z"/><path d="m402.53 446.35c-.23-9.91-3-19.6-3.69-29.49s1.32-20.77 8.76-27.33c5.33-4.7 12.61-6.44 19.64-7.39a119.77 119.77 0 0 1 37.6.88c5.9 1.09 11.87 2.69 16.72 6.2 4.69 3.39 8 8.35 10.54 13.55 6.11 12.59 2.93 28.37 9.63 40.67 69.62 127.87-126.58 92.56-121.25 16.06"/><path d="m403.21 446.35c-.21-13.43-5.32-26.68-3.09-40.16.91-5.52 3-11 7-15 4.44-4.48 10.62-6.48 16.68-7.58a113 113 0 0 1 42.87.79c6.36 1.34 12.59 3.54 17.28 8.23a37.81 37.81 0 0 1 9.27 16.12c3.34 11.72 1.8 24.51 7.73 35.51a151.62 151.62 0 0 1 10.09 22.4c3.64 10.55 6.13 22.34 3.56 33.43a31.59 31.59 0 0 1 -13.6 19.5c-7.4 4.8-16.31 6.86-25 7.43a98.17 98.17 0 0 1 -30.33-3.14 115.38 115.38 0 0 1 -29.91-12.22 83.16 83.16 0 0 1 -23.37-19.76c-5.74-7.29-9.85-16-10.71-25.35a46.12 46.12 0 0 1 -.15-7.05c.09-1.32-2-1.32-2.05 0a47.15 47.15 0 0 0 7.21 28c5.45 8.85 13.19 16.12 21.69 22a112.8 112.8 0 0 0 30 14.5 107.87 107.87 0 0 0 31.77 5.3c9.42.06 19.1-1.33 27.65-5.46a34.53 34.53 0 0 0 17.32-18.07c4-10 3.05-21.43.45-31.69a120.8 120.8 0 0 0 -7.91-21.45c-.95-2-1.94-4-3-6a72 72 0 0 1 -3.58-7.2c-2.3-6-2.86-12.42-3.59-18.73s-1.62-12.44-4.29-18.13-6.32-10.95-11.45-14.51c-5.44-3.78-12.09-5.3-18.52-6.36a120.59 120.59 0 0 0 -22-1.61 97.7 97.7 0 0 0 -20.74 2.29c-5.85 1.39-11.59 3.93-15.59 8.57-8 9.23-7.72 22.37-6 33.7 1.1 7.21 2.65 14.35 2.94 21.65a.68.68 0 0 0 1.36 0z"/><path d="m464.47 416.67c8.84 9.42 24.87 10.9 35.29 3.27 4.15-3 8.44-7.56 13.43-6.35a10.89 10.89 0 0 1 4.84 3.05c9.09 8.85 11.39 23.65 6.16 35.21s-17.29 19.49-29.94 20.56"/><path d="m464 417.11a28.19 28.19 0 0 0 22 8.55 27.69 27.69 0 0 0 11.51-3.08c3.94-2.07 7-5.71 11.1-7.39a6.67 6.67 0 0 1 6.57.64 20.82 20.82 0 0 1 4.84 5 30.12 30.12 0 0 1 5.05 11.87 31.09 31.09 0 0 1 -5.68 24.66c-6.18 8.13-15.53 12.48-25.43 14-1.22.19-.92 2.18.29 2.15 9.14-.23 18.18-4.83 24.47-11.35a33.52 33.52 0 0 0 9.5-24.78 34 34 0 0 0 -3.21-13c-1.9-4-4.83-8.15-8.6-10.61-4.29-2.81-8.81-1.13-12.58 1.66-1.95 1.43-3.73 3.08-5.74 4.42a24.25 24.25 0 0 1 -5.94 2.85c-9.37 3-20.32.68-27.24-6.42-.56-.57-1.41.29-.87.87z"/><path d="m482.74 327.55c7.86 6.27 10.67 17.31 5.73 26.25a20.31 20.31 0 0 1 -4.41 5.48c-1.76 1.54-4.58 3.31-6.78 1.56-1.92-1.52-2.77-4.45-3.36-6.72a41.67 41.67 0 0 1 -1.09-7.86c-.21-3.36-.3-6.72-.31-10.08 0-1.63 0-3.25.05-4.88a40 40 0 0 0 .05-5.36c-.12-1.06-1.75-1.5-2-.27a27.66 27.66 0 0 0 -.39 5.15c0 1.78-.07 3.57-.07 5.36 0 3.36.09 6.72.3 10.08a42.67 42.67 0 0 0 1.39 9.33c.73 2.49 1.83 5.33 3.9 7 4.75 3.87 10.53-1.62 13.23-5.39a22.22 22.22 0 0 0 4-15.58 21.36 21.36 0 0 0 -9.39-15.13c-.61-.4-1.39.57-.8 1z"/><path d="m487.65 341.18a3.57 3.57 0 0 1 2.35.55c.85.72.82 2 .71 3.13a18.85 18.85 0 0 1 -.85 4.68 1.35 1.35 0 0 1 -.27.5 1.4 1.4 0 0 1 -.72.29l-1.5.3.39-5.36a7 7 0 0 0 -.4-3.7" fill="#18c4ff"/><path d="m487.48 341.78c.73.12 1.86.1 2.22.88a5 5 0 0 1 .05 2.55 19.74 19.74 0 0 1 -.54 3.24c-.08.28-.18.56-.27.84 0 0-.06.14 0 0s-.13 0-.21.05c-.54.12-1.1.21-1.64.32l1.23.93c.13-1.69.24-3.39.34-5.09a15.37 15.37 0 0 0 0-2.25 3.31 3.31 0 0 0 -.78-2.29.83.83 0 0 0 -1.4.57 4.66 4.66 0 0 0 .27 1.16 4.32 4.32 0 0 1 .1.88c0 .74-.07 1.48-.13 2.21-.14 1.6-.27 3.21-.38 4.81a1 1 0 0 0 1.22.94 9.38 9.38 0 0 0 2.12-.51 2.32 2.32 0 0 0 1.16-1.6 21.25 21.25 0 0 0 .73-4.42 4.89 4.89 0 0 0 -.7-3.51 3.41 3.41 0 0 0 -3.45-.94.62.62 0 0 0 0 1.19z" fill="#18c4ff"/><path d="m464.53 378.85-3.1 14.15a2.32 2.32 0 0 1 -.33.9 2.27 2.27 0 0 1 -1.64.69 28.14 28.14 0 0 1 -21.46-6.84 5.56 5.56 0 0 1 -1.93-2.68 6.28 6.28 0 0 1 .44-3.3 142.9 142.9 0 0 0 5.68-26.35" fill="#fff"/><path d="m483.25 336c-.26-2.28.27-18.5-17.15-19.46a28.44 28.44 0 0 0 -18.32 5.7 50.49 50.49 0 0 0 -4.7 4c-16.05 15.27-.86 50.57 22.12 52.27 14.38 1.06 18-13 18.92-24.69.47-5.99-.2-11.95-.87-17.82z" fill="#fff"/><path d="m465.2 379.31c18.35 1.2 20.71-21.78 19.74-35.2-.24-3.29-.68-6.56-.92-9.84a28.35 28.35 0 0 0 -1-5.79 16.82 16.82 0 0 0 -10.82-11.75 26 26 0 0 0 -15-.13c-5.71 1.57-10.54 4.92-14.8 8.94-.82.78.43 2 1.25 1.24a34.54 34.54 0 0 1 12.6-8 25.56 25.56 0 0 1 13.43-.87 15 15 0 0 1 11.38 10.26c1.23 3.76 1.29 7.88 1.69 11.79.87 8.43 1 17.15-1.62 25.32a20.18 20.18 0 0 1 -5.38 9.12c-2.93 2.63-6.76 3.45-10.6 3.2-1.14-.08-1.13 1.68 0 1.76z"/><path d="m470.44 345.12c.15 1.14.27 2.27.39 3.41a7.19 7.19 0 0 0 .28 1.38 2.61 2.61 0 0 0 .94 1.21 1.64 1.64 0 0 1 .62 1.77c-.27.8-1.07.88-1.57 1.49a1.21 1.21 0 0 0 0 1.66 1.18 1.18 0 0 0 1.66 0c.19-.24.75-.49 1.06-.78a3.64 3.64 0 0 0 .9-1.26 3.75 3.75 0 0 0 -.19-3.4 4.11 4.11 0 0 0 -1.14-1.21c-.22-.16-.48-.26-.7-.42s-.18-.17-.24-.41c-.32-1.25-.57-2.51-.81-3.77a.63.63 0 0 0 -.77-.44.64.64 0 0 0 -.43.77z"/><path d="m443.63 348.08.09-.06-.14.07a.66.66 0 0 1 .2-.06h-.17.25-.19a1.66 1.66 0 0 1 .38.11l-.17-.08a1.24 1.24 0 0 1 .27.17l-.15-.12a1.36 1.36 0 0 1 .24.24l-.12-.15a2.5 2.5 0 0 1 .3.53l-.08-.19a3.81 3.81 0 0 1 .19.57v-.22.18-.22.1l.09-.2v.05l.13-.18.18-.14.2-.09h.23l.75.43v-.06l.09.21a1.29 1.29 0 0 1 -.08-.28v.24a1 1 0 0 1 0-.25v.24a1.05 1.05 0 0 1 .05-.19 1.08 1.08 0 0 0 0-.59.9.9 0 0 0 -.5-.56.87.87 0 0 0 -.77 0 1 1 0 0 0 -.5.67 2.59 2.59 0 0 0 0 .48 2 2 0 0 0 .27.9.92.92 0 0 0 1.05.42 1.06 1.06 0 0 0 .59-.45 1.3 1.3 0 0 0 .12-.95 2.45 2.45 0 0 0 -.25-.61 3.24 3.24 0 0 0 -.28-.47 2.2 2.2 0 0 0 -1.19-.91 1.53 1.53 0 0 0 -1.54.38.61.61 0 0 0 .74 1z"/><path d="m458.34 335.84a15.16 15.16 0 0 1 3.32-1.33 14.8 14.8 0 0 1 1.73-.37c.6-.1 1.27-.11 1.86-.27a.79.79 0 0 0 .57-.86.82.82 0 0 0 -.78-.69 6.88 6.88 0 0 0 -2 .24 15.4 15.4 0 0 0 -1.88.52 17.31 17.31 0 0 0 -3.51 1.65.64.64 0 0 0 .65 1.11z"/><path d="m482.66 334.44a9.53 9.53 0 0 0 -1.19-.9 10 10 0 0 0 -1.37-.63 8.87 8.87 0 0 0 -1.31-.38 3.53 3.53 0 0 0 -1.67-.12.74.74 0 0 0 -.53.7.75.75 0 0 0 .53.7 2.88 2.88 0 0 0 .77.12h.21l.32.05a8.68 8.68 0 0 1 1.24.32 9.69 9.69 0 0 1 2.24 1.1c.59.38 1.29-.51.76-1z"/><path d="m463.9 378.68a59.89 59.89 0 0 0 -1.88 7.49l-.82 3.66c-.22 1-.28 2.79-1 3.47s-2.26.48-3.15.5a28.35 28.35 0 0 1 -3.19-.12 27.43 27.43 0 0 1 -11.77-4c-1.65-1-3.84-2.36-4.86-4.08a3.92 3.92 0 0 1 0-3.2c.36-1.2.75-2.38 1.09-3.58q1-3.4 1.82-6.87c1.27-5.37 2.19-10.82 3-16.28a1 1 0 1 0 -2-.27 116.15 116.15 0 0 1 -2.93 16.76q-1 4-2.2 8c-.67 2.17-1.6 4.43-.24 6.53a16.35 16.35 0 0 0 4.9 4.27 29.18 29.18 0 0 0 13 4.56 19.07 19.07 0 0 0 6.78-.18 2.61 2.61 0 0 0 1.87-2.11c.41-1.61.7-3.26 1-4.89a75.08 75.08 0 0 0 1.82-9.5c.06-.78-1.05-.82-1.28-.17z"/><path d="m478 344.2a.69.69 0 0 0 0-.2.64.64 0 0 0 0-.2s-.05-.1 0-.09v-.1a2.43 2.43 0 0 0 -.14-.2.86.86 0 0 0 -.39-.23.91.91 0 0 0 -.23 0 1.24 1.24 0 0 0 -.27 0l-.22.09-.23.17a1.05 1.05 0 0 0 -.22.3c0 .09-.08.18-.11.27a.32.32 0 0 0 0 .09 2.76 2.76 0 0 0 -.06.4v.15a2.7 2.7 0 0 0 0 .28.08.08 0 0 1 0 .05 1.28 1.28 0 0 0 .11.24l.17.22a1 1 0 0 0 1.12.12l.1-.08a.48.48 0 0 0 .11-.09 1.39 1.39 0 0 0 .15-.19.71.71 0 0 0 .11-.25.73.73 0 0 0 0-.36.64.64 0 0 0 -.1-.33.79.79 0 0 0 -.23-.25.73.73 0 0 0 -.3-.16h-.24a.89.89 0 0 0 -.45.12l-.18.14a.86.86 0 0 0 -.23.39s0 0 0 0l.09-.22.14-.18.18-.14.22-.09.86.23.14.18v-.08l.09.21a.65.65 0 0 1 -.05-.2v.23a1.22 1.22 0 0 1 0-.27v.23a.75.75 0 0 1 0-.16l-.08.2a.41.41 0 0 1 0-.09l-.13.17.06-.06-.17.13-.19.08h.06-.21a1 1 0 0 0 .23 0l.21-.08-.19.08h.06-.2.06-.19l-.17-.07-.14-.11-.11-.14-.07-.16.07.17a.52.52 0 0 0 .17.19.28.28 0 0 0 .15.08.4.4 0 0 0 .26.06h.18l.17-.07a.71.71 0 0 0 .31-.41z"/><path d="m463.22 344.2a0 0 0 0 0 0 0v-.2a1.2 1.2 0 0 0 0-.2s0 0 0 0v-.09a.26.26 0 0 0 0-.1 1.3 1.3 0 0 0 -.15-.2 1 1 0 0 0 -.4-.23.85.85 0 0 0 -.23 0 1.27 1.27 0 0 0 -.28 0l-.22.09a1.28 1.28 0 0 0 -.22.17 1.33 1.33 0 0 0 -.23.3c0 .09-.08.18-.11.27v.09a2.73 2.73 0 0 0 -.05.4.34.34 0 0 0 0 .1s0 0 0 .05a1.35 1.35 0 0 0 0 .28v.05a2.44 2.44 0 0 0 .1.24 1.63 1.63 0 0 0 .17.22.86.86 0 0 0 .86.22.69.69 0 0 0 .25-.1l.11-.08.11-.09.14-.19a.93.93 0 0 0 .1-.25.73.73 0 0 0 0-.36.65.65 0 0 0 -.11-.33.61.61 0 0 0 -.23-.25.62.62 0 0 0 -.3-.16h-.24a.89.89 0 0 0 -.45.12l-.18.14a1 1 0 0 0 -.23.39s0 0 0 0l.09-.22s0 0 0 0l.13-.18.18-.14.21-.09.87.23.14.18-.05-.08.09.21a1.17 1.17 0 0 1 -.05-.2v.23a1.22 1.22 0 0 1 0-.27v.23a.75.75 0 0 1 0-.16l-.09.2v-.09l-.13.17.06-.06-.17.13-.19.08h.07-.22a1.05 1.05 0 0 0 .24 0l.2-.08-.19.08h.07-.2.06-.2l-.18-.07h.05l-.14-.11-.1-.14-.07-.16.07.17a.47.47 0 0 0 .18.19.28.28 0 0 0 .15.08.39.39 0 0 0 .26.06h.18l.16-.07a.71.71 0 0 0 .31-.41z"/><path d="m459.15 359.1a6 6 0 0 0 1.07 3.26 6.17 6.17 0 0 0 2.59 2.29.78.78 0 1 0 .79-1.35l-.3-.19-.18-.13c-.06 0-.07-.05 0 0l-.28-.21-.1-.07c.09.06-.08-.07-.08-.07l-.14-.11a6.26 6.26 0 0 1 -.52-.52l-.26-.3c0-.06-.05-.08 0 0l-.12-.18a6.49 6.49 0 0 1 -.39-.62l-.16-.32c0-.05-.05-.11-.08-.16s0 .09 0-.05a9.31 9.31 0 0 1 -.44-1.45.7.7 0 0 0 -1.37.18z"/><path d="m457.86 375.66a14.16 14.16 0 0 0 6.53 3.11.76.76 0 0 0 .4-1.47 13.5 13.5 0 0 1 -6.18-2.61c-.56-.42-1.28.52-.75 1z"/><path d="m448.32 344.18a5.37 5.37 0 0 0 -6.57-1.39 6 6 0 0 0 -3 6.14 6.78 6.78 0 0 0 4.61 5.18 62.14 62.14 0 0 0 -3.93 13.95l-3.28-6.49a65.86 65.86 0 0 1 -2.91-6.33 32.19 32.19 0 0 1 -2-12.71c.27-6.07 2.54-12.37 7.4-16 1.5-1.13 3.21-2 4.6-3.23.95-.86 1.73-1.89 2.66-2.76a19.71 19.71 0 0 1 6.68-3.74c4.5-1.7 9.3-2.94 14.09-2.43 3.81.4 7.4 1.89 10.94 3.36a7.31 7.31 0 0 1 2.94 1.81 2.54 2.54 0 0 1 .24 3.2 146.93 146.93 0 0 0 -29.52 2.73 12.11 12.11 0 0 1 -1.37 10.53 10.49 10.49 0 0 0 -1.19 1.95c-.84 2.17.47 4.86-.71 6.88"/><path d="m448.86 343.86a6 6 0 0 0 -10.11.79c-2.3 4.11.19 8.85 4.39 10.33l-.54-1.32a61.05 61.05 0 0 0 -4.08 14.14l1.76-.23c-2.84-5.63-6.21-11.23-7.48-17.47-1.11-5.48-.85-11.57 1.59-16.68a16.34 16.34 0 0 1 4.75-6.05c1.1-.83 2.31-1.49 3.42-2.28a21.47 21.47 0 0 0 3.16-2.94 18.56 18.56 0 0 1 7.56-4.56 35.44 35.44 0 0 1 9.22-2.26 24.31 24.31 0 0 1 10.13 1.49c1.59.56 3.16 1.2 4.71 1.86 1.29.55 3.85 1.78 2.59 3.54l.86-.49a151.19 151.19 0 0 0 -29.79 2.76 1 1 0 0 0 -.7 1.23 11.3 11.3 0 0 1 -1.26 9.74 7.69 7.69 0 0 0 -1.62 4c-.09 1.6.52 3.4-.21 4.91-.51 1.05 1 2 1.58.92.87-1.61.67-3.27.62-5a4.72 4.72 0 0 1 .5-2.48c.45-.8 1-1.5 1.48-2.32a13.33 13.33 0 0 0 .84-10.23l-.7 1.23a161.54 161.54 0 0 1 28.77-2.7c1.76 0 2.22-1.87 1.8-3.37-.5-1.73-2.08-2.67-3.63-3.35-4-1.72-8.12-3.39-12.5-3.7a31.91 31.91 0 0 0 -13.22 2.36 27.56 27.56 0 0 0 -5.5 2.57 29.68 29.68 0 0 0 -4.4 4.06c-1.55 1.5-3.54 2.42-5.21 3.75a17.35 17.35 0 0 0 -3.57 3.93 23.76 23.76 0 0 0 -3.62 10.28 32.25 32.25 0 0 0 1.49 14.16c1.65 4.92 4.34 9.52 6.68 14.13a1 1 0 0 0 1.76-.23 67.9 67.9 0 0 1 3.87-14 .91.91 0 0 0 -.63-1.1c-3.1-1.05-5.06-4.51-3.52-7.6a4.74 4.74 0 0 1 7.78-1c.46.52 1.4-.19 1-.76z"/><path d="m483.21 326.8c-9.41 0-18.76 1.37-28.07 2.76a2.91 2.91 0 0 0 -1.9.78 3.2 3.2 0 0 0 -.47 1.89c-.5 8.43-7.41 15.22-9 23.53-.4 2.14-.53 4.56-2.1 6.07s-4.13 1.53-6.37 1.42a2.75 2.75 0 0 1 -1.55-.4 2.69 2.69 0 0 1 -.76-1.08q-2.32-4.92-4.44-9.94c-2.79-6.6-5.32-13.75-4-20.79 2.85-15.08 20.22-26 34.75-26.73 6.55-.36 13.19 1.4 17.81 6.2a22.71 22.71 0 0 1 6.17 16.79" fill="#fff"/><path d="m483.21 326.13a138.78 138.78 0 0 0 -22.29 1.65c-1.69.22-3.38.46-5.07.7-1.32.19-2.78.29-3.57 1.53s-.5 2.6-.71 3.84a22.76 22.76 0 0 1 -1.25 4.35c-2.13 5.51-5.84 10.36-7.26 16.16-.6 2.44-.38 6.17-3.07 7.39a9.08 9.08 0 0 1 -4.27.43c-1.18-.07-1.45-.41-1.91-1.41s-.81-1.72-1.2-2.58c-2.93-6.38-6.23-13.12-7.08-20.18a23.57 23.57 0 0 1 4.09-16.08c5.75-8.58 15.83-14.32 25.88-16.09 6.27-1.11 13.13-.46 18.44 3.3 5.77 4.1 8.54 11.25 8.36 18.16 0 1.34 2 1.33 2.07 0a23.66 23.66 0 0 0 -6.45-17.55c-4.41-4.57-10.75-6.58-17-6.58-10.93 0-22.22 5.31-29.68 13.21a29.31 29.31 0 0 0 -7.66 14c-1.49 7.33.95 14.6 3.74 21.29 1.47 3.51 3 7 4.64 10.42a3.38 3.38 0 0 0 3 2.19 14 14 0 0 0 4.83-.3c3-.81 4.24-3.29 4.74-6.15a33.15 33.15 0 0 1 2.93-9.15c1.51-3.1 3.27-6.07 4.58-9.26a23.6 23.6 0 0 0 1.52-5.06c.14-.85.17-1.71.26-2.56.14-1.39 1.47-1.31 2.57-1.48a214.12 214.12 0 0 1 26.85-2.88.67.67 0 0 0 0-1.34z"/><path d="m447.39 348.56a22.19 22.19 0 0 1 -16.16 23.37c-3.85 1.07-8.18 1.2-11.27 3.73-2.39 2-3.56 5-5.28 7.57a20.25 20.25 0 0 1 -20.36 8.36 6.4 6.4 0 0 1 -4.19-2.3c-1.08-1.61-.76-3.75-.4-5.66.3-1.61.91-3.54 2.51-3.86 1.88-.37 3.24 1.81 5.06 2.43a6.33 6.33 0 0 0 4.28-.59 15.07 15.07 0 0 0 4.94-2.87c1.92-1.84 2.86-4.46 4.34-6.68a15.82 15.82 0 0 1 7.14-5.86c2.84-1.15 6.21-1.6 8.2-3.95s1.87-5.48 1.75-8.42a2.92 2.92 0 0 0 -.74-2.24" fill="#fff"/><path d="m446.72 348.56c.36 10.3-6 19.77-16.2 22.26-4.43 1.09-9.35 1.35-12.61 5a35.7 35.7 0 0 0 -3.75 5.8 18.78 18.78 0 0 1 -4.3 5 19.29 19.29 0 0 1 -12.47 4.23c-2.09-.07-5.38-.33-6.5-2.42a5.49 5.49 0 0 1 -.32-3.21 9.9 9.9 0 0 1 .86-3.43c1.22-2.25 3.36.37 4.75 1.09 2.23 1.15 4.54.25 6.68-.67a13.15 13.15 0 0 0 5.58-4.12c1.44-1.93 2.3-4.21 3.74-6.13a14.93 14.93 0 0 1 6.63-5c2.31-.87 4.85-1.35 6.88-2.85a8.53 8.53 0 0 0 3.23-6 24.06 24.06 0 0 0 .12-3.89 4.62 4.62 0 0 0 -1.06-3.37c-1-1-2.45.52-1.49 1.49.76.76.5 2.65.5 3.63a11.94 11.94 0 0 1 -.5 3.72c-.86 2.57-3.14 3.66-5.54 4.46a24.49 24.49 0 0 0 -6.51 2.88 17.3 17.3 0 0 0 -4.88 5.2c-1.36 2.23-2.34 4.8-4.49 6.42a15.52 15.52 0 0 1 -3.58 1.89c-1.32.53-2.86 1.17-4.25.49-1.76-.85-3.08-2.8-5.29-2.29-2 .46-2.82 2.5-3.22 4.29-.48 2.22-.86 4.81.44 6.82s3.73 2.69 5.93 3a21.63 21.63 0 0 0 13.23-2.32 20.76 20.76 0 0 0 5.45-4.13 31 31 0 0 0 4-5.86c1.28-2.17 2.72-4.08 5.07-5.14s4.78-1.32 7.17-1.88c11.19-2.61 19.45-13.37 18-25-.11-.83-1.37-.88-1.34 0z"/><path d="m453.07 341.83c-8.92.69-18.39 3.08-27 5.15a3.94 3.94 0 0 0 -1.83.78c-.56.53 0 .32 0 1a12.55 12.55 0 0 0 1 4.56 1.11 1.11 0 0 0 .47.6 1.61 1.61 0 0 0 .85.07c2.33-.25 4.63-.69 6.92-1.13 6.15-1.18 13-2.82 19.54-2.48-1-2.28-2.31-5.88-1.14-8.1" fill="#18c4ff"/><path d="m453.07 341.1a87.75 87.75 0 0 0 -13.87 1.9c-4.6.9-9.29 1.85-13.81 3.12a3.78 3.78 0 0 0 -2.16 1.25c-.44.63-.13 1 0 1.68.35 1.73.22 4.12 1.57 5.5a2.19 2.19 0 0 0 1.79.53 35 35 0 0 0 3.52-.49c2.25-.38 4.49-.84 6.73-1.29 5.34-1.07 10.73-2.1 16.21-1.86a1 1 0 0 0 .86-1.5c-1-2.25-2-4.93-1.09-7.35.38-1-1.2-1.62-1.71-.72-1.59 2.77-.06 6.42 1.07 9.08l.87-1.51c-5.73-.26-11.39.83-17 1.94-2.83.56-5.68 1.16-8.55 1.53-.5.06-1.06.25-1.33 0a4.9 4.9 0 0 1 -.61-1.82 32.33 32.33 0 0 0 -.61-3.22l-.1.79c.31-.73 2.54-.93 3.23-1.1l3.59-.87c2.28-.55 4.57-1.09 6.87-1.6 4.8-1.07 9.63-1.87 14.52-2.5.89-.11 1-1.48 0-1.45z" fill="#18c4ff"/><path d="m462.66 337.34c-3.15 0-7.79.44-9.93 3.09a8.47 8.47 0 0 0 -1.48 4.56 10.41 10.41 0 0 0 .52 5c1.25 3.12 4.48 4.63 7.65 5a25.63 25.63 0 0 0 6-.14 3.69 3.69 0 0 0 2.9-1.89c.62-1.08.72-2.39 1.33-3.47a1.71 1.71 0 0 1 1.5-.95c.85-.08 2.37-.13 3.05.46s.61 1.6.8 2.34a6.21 6.21 0 0 0 .89 2.16 4.51 4.51 0 0 0 3.59 1.73 16.46 16.46 0 0 0 5.13-.69c1.54-.46 2.13-2 2.59-3.42a21.7 21.7 0 0 0 .92-5.55 18 18 0 0 0 -.1-5.28c-1.08-4.07-6.74-3.58-9.94-3.54-2.35 0-4.71.08-7.06.17a57.19 57.19 0 0 0 -7.29.45c-1.05.17-.72 1.71.23 1.77 3.53.22 7.17-.18 10.71-.26 1.69 0 3.39-.08 5.08-.09a12 12 0 0 1 5 .59c1.49.7 1.46 2.15 1.44 3.59a35 35 0 0 1 -.32 5.12c-.17 1.12-.48 3.6-1.45 4.36a5.38 5.38 0 0 1 -2.19.52 13.47 13.47 0 0 1 -2.36.29 2.66 2.66 0 0 1 -2.91-2.27c-.31-1.19-.41-2.66-1.41-3.52a5.55 5.55 0 0 0 -3.34-.89 4.58 4.58 0 0 0 -3.46.93 5.55 5.55 0 0 0 -1.32 2.37c-.3.88-.46 2.11-1.23 2.72a3.56 3.56 0 0 1 -1.93.43c-.92.07-1.84.13-2.77.13a11.49 11.49 0 0 1 -4.88-.85c-3.48-1.6-4-5.19-3.25-8.61a4.66 4.66 0 0 1 3.34-3.7 22.61 22.61 0 0 1 6-1.31.66.66 0 0 0 0-1.32z"/><path d="m427.11 355.82c4.21-.87 8.46-1.59 12.7-2.28 2.16-.35 4.33-.68 6.5-1s4.25-.3 6.3-.75a1 1 0 0 0 -.26-1.91 46.49 46.49 0 0 0 -6.53.85c-2.08.31-4.17.63-6.24 1-4.31.75-8.58 1.71-12.83 2.77-.83.21-.47 1.45.36 1.28z"/><path d="m428.94 349c0 .35-.05.71-.05 1.06a.73.73 0 0 0 .19.48.7.7 0 0 0 .47.19.69.69 0 0 0 .48-.19.73.73 0 0 0 .19-.48c0-.35 0-.71-.05-1.06a.65.65 0 0 0 -.18-.44.7.7 0 0 0 -.44-.18.64.64 0 0 0 -.43.18.72.72 0 0 0 -.18.44z"/><path d="m433.85 348a4.38 4.38 0 0 1 0 .51v-.17a4.35 4.35 0 0 1 -.18.71.72.72 0 0 0 .07.52.69.69 0 0 0 .4.31.66.66 0 0 0 .82-.47 3.94 3.94 0 0 0 .14-1.41.67.67 0 0 0 -.18-.44.6.6 0 0 0 -.44-.18.61.61 0 0 0 -.62.62z"/><path d="m438.76 346.92-.14 1.56a.63.63 0 0 0 .2.48.68.68 0 0 0 .49.2.69.69 0 0 0 .68-.68v-1.56a.64.64 0 0 0 -.62-.63.61.61 0 0 0 -.44.19.73.73 0 0 0 -.19.44z"/><path d="m431 337.39a98.66 98.66 0 0 1 12-4.24c2.05-.57 4.12-1 6.19-1.53s4.2-.74 6.26-1.26c.89-.23.74-1.75-.23-1.66a61.06 61.06 0 0 0 -12.63 3 116 116 0 0 0 -12.11 4.54c-.66.29-.18 1.45.49 1.17z"/><g fill="#18c4ff"><path d="m443.07 313.24a10.93 10.93 0 0 1 8.57 3.89c2.32 2.6 3.48 5.95 4.3 9.27.23.92 1.62.53 1.42-.39a20.86 20.86 0 0 0 -4.91-10 12.18 12.18 0 0 0 -9.38-4c-.79.05-.8 1.27 0 1.23z"/><path d="m457.32 307.26a16.13 16.13 0 0 1 7.95 6.81c2.13 3.47 2.84 7.24 3.66 11.16.18.85 1.6.68 1.53-.2-.64-7.8-5.1-16.25-12.81-19-.75-.26-1.06.91-.33 1.19z"/><path d="m473 310.5a17.34 17.34 0 0 1 3.9 6.91 19.93 19.93 0 0 1 .5 7.84c-.08.81 1.25 1 1.42.19 1.19-5.55-1.11-11.78-5-15.79-.54-.57-1.38.28-.85.85z"/><path d="m431.17 362.48 1.07 1.15.52.57.26.27a2.05 2.05 0 0 0 .41.37.69.69 0 0 0 .94-.94 1.48 1.48 0 0 0 -.35-.4l-.26-.26-.57-.56-1.13-1.09a.63.63 0 0 0 -.89 0 .64.64 0 0 0 0 .89z"/><path d="m433.42 359.53.25.1h.05l.11.05.51.25c.32.18.63.38.93.59l.1.07.08.06h.05l.11.1a4.48 4.48 0 0 1 .4.36 8.6 8.6 0 0 1 .77.83.69.69 0 0 0 1 0 .71.71 0 0 0 0-1 9.18 9.18 0 0 0 -4-2.68.61.61 0 1 0 -.33 1.18z"/><path d="m399.51 384.55a27 27 0 0 0 .64 3.68.66.66 0 0 0 1.28-.35c-.16-.57-.29-1.13-.41-1.7 0-.29-.11-.57-.15-.86 0-.13-.05-.27-.07-.4a1.36 1.36 0 0 1 0-.2c0-.08 0-.09 0 0v-.14a.63.63 0 0 0 -.62-.62.62.62 0 0 0 -.62.62z"/><path d="m403.27 383.18.41 1.54c.13.51.24 1 .41 1.54a.69.69 0 1 0 1.33-.37c-.12-.51-.3-1-.46-1.52l-.47-1.52a.63.63 0 0 0 -1.22.33z"/><path d="m407.25 381.37c.41.74.81 1.5 1.26 2.22a.68.68 0 1 0 1.17-.69c-.42-.74-.9-1.44-1.36-2.16a.62.62 0 0 0 -1.07.63z"/><path d="m399.06 427c0 26.51 30.88 50.93 56.53 51.49s49.57-22.65 50.67-49.14c.34-8.11-1-16.93 3.16-23.81 3.49-5.75 10-8.59 16.11-11.07a1673.16 1673.16 0 0 1 178.47-60.74c19.41-5.4 39.89-10.47 59.41-5.49 24.71 6.31 43.55 28.09 53.53 52.3 14.55 35.3 27.11 87 7.15 122.49-31.8 56.57-108.75 74.13-165.85 88.17-71.42 17.56-145.11 27.78-217.82 37-45.7 5.83-91.23 12.52-136.89 19.14-39.37 5.71-78.76 11.37-118.29 15.75-17.63 2-35.42 3.23-53 5.35-64.82 7.92-95.04-53.07-105.39-109.44-8.15-44.33 11.15-70.93 48.58-90.46 7.79-4.07 16.45-8.25 24.93-6.08 9.51 2.43 15.43 11.9 22.94 18.4 22.68 19.64 56.68 10.6 84.63.58l161.2-57.79c10.29-3.68 24.16-6.2 29.93 3.34"/><path d="m398.33 427c.3 26.2 26.5 48 50.92 51.89 26.64 4.27 52.37-16.67 57.27-42.53 1.47-7.79 0-15.76 1.4-23.52 1.71-9.44 9.16-13.73 17.36-17.09 17.92-7.36 36.06-14.22 54.26-20.86q54.36-19.83 110-35.87c18.65-5.38 38-11.8 57.57-11.6 17.17.18 32.75 7 45.17 18.69 11.41 10.78 19.34 24.38 25 38.89a244.79 244.79 0 0 1 12.89 44c2.92 15.65 4.11 32 1.45 47.74-2.51 14.89-9 28.16-18.33 39.94-17.24 21.74-41.8 36.33-67.08 46.89s-52 17.5-78.66 24q-54.38 13.43-109.65 22.72c-38.77 6.46-77.73 11.67-116.72 16.64-39.23 5-78.38 10.62-117.52 16.29-39.86 5.78-79.66 11.68-119.66 16.48-19.73 2.37-39.51 4.1-59.27 6.13-15.14 1.56-29.63 3.48-44.54-.78-24.66-7-42.24-27-53.61-49.19a190.24 190.24 0 0 1 -14-37c-3.63-13.4-6.72-27.36-6.34-41.32a68 68 0 0 1 10.76-35.61c7.15-10.9 17.37-19.43 28.34-26.28 6.85-4.27 14.24-8.65 21.94-11.13 9.66-3.11 17.38-.34 24.45 6.46 5.16 5 9.66 10.53 15.7 14.51a49.72 49.72 0 0 0 19.45 7.35c14.42 2.32 29.27-.42 43.15-4.34 17.56-5 34.63-11.81 51.79-18l112.68-40.41c11.18-4 34.58-16.3 43.62-2.55.77 1.17 2.66.08 1.88-1.1-7.61-11.6-23.57-6.58-34.15-2.79l-58.22 20.82q-29.11 10.41-58.22 20.86c-18.14 6.5-36.19 13.57-54.6 19.28-15.42 4.79-32.26 8.65-48.42 5.74a46.59 46.59 0 0 1 -21.79-9.94c-5.56-4.68-9.86-10.7-15.73-15-13.62-10.05-29.37-.95-41.92 6.51-10.83 6.43-21 14.28-28.75 24.3-16.65 21.49-16.2 47.78-10.44 73.21 5.68 25.2 15.15 50.61 31.74 70.76 16 19.5 38.82 31 64.29 30.23 9.06-.27 18.11-1.77 27.13-2.64 10.14-1 20.3-1.87 30.43-2.94 19.88-2.11 39.73-4.66 59.54-7.33 40.44-5.46 80.79-11.56 121.18-17.34s81-10.86 121.47-16.36c72.85-9.89 145.46-22.25 216.36-42 27.17-7.56 54.4-16.84 78.55-31.67 22.83-14 44.58-34.45 52.89-60.63 9.46-29.78 2.94-63.29-6.72-92.16-9.19-27.44-24-55.41-52-67.28-16.59-7-34.75-5.65-52-1.81-19.36 4.32-38.44 10.4-57.4 16.2q-56.82 17.39-112.32 38.79c-9.31 3.6-18.66 7.16-27.86 11.06-6 2.53-12.09 5.76-15.2 11.78-3.7 7.14-2.32 15.54-2.67 23.25a48.91 48.91 0 0 1 -6.44 21.87c-7.44 13.15-20.73 23.33-35.8 25.79s-30.7-4.06-42.38-13.36c-11.25-8.95-20.44-21.8-20.75-36.62a.74.74 0 0 0 -1.47 0z"/></g><g fill="#fff"><path d="m532 469.46c-5.33.63-9.85 4.51-12.49 9.18s-3.67 10.06-4.4 15.37a164.23 164.23 0 0 0 -1.12 33.9c.21 3 .61 6.29 2.66 8.54 3 3.26 8.09 3.06 12.48 2.61a8 8 0 0 1 -5.11-5.19 24 24 0 0 1 -1-7.47c-.58-19.44-.9-40 8.63-56.92"/><path d="m532 468.83c-5.29.58-9.64 3.91-12.52 8.27-3.41 5.15-4.53 11.38-5.34 17.4a165.55 165.55 0 0 0 -1.49 21.11q0 5.29.28 10.58c.17 2.79.29 5.71 1.4 8.32 2.54 5.94 9.28 6 14.8 5.49a.94.94 0 0 0 .25-1.84c-4.85-1.45-5.31-7.33-5.44-11.54-.15-4.69-.27-9.38-.25-14.06 0-9.37.63-18.78 2.93-27.89a62.55 62.55 0 0 1 5.7-14.78.82.82 0 0 0 -1.41-.82c-10 17.64-9.63 39-8.81 58.67.21 4.85 1.47 10.65 6.78 12.23l.25-1.85c-4.54.46-10.54.82-12.92-4-1.15-2.34-1.22-5.13-1.38-7.69q-.3-4.9-.32-9.84a163.84 163.84 0 0 1 1-18.92c.65-5.75 1.41-11.77 3.9-17.06s6.89-9.64 12.72-10.54c.7-.1.54-1.32-.17-1.24z"/><path d="m569.44 454.66c-5.33.62-9.85 4.51-12.49 9.17s-3.67 10.06-4.4 15.37a164.25 164.25 0 0 0 -1.13 33.9c.22 3 .61 6.3 2.67 8.55 3 3.26 8.08 3.06 12.48 2.61a8.05 8.05 0 0 1 -5.11-5.2 23.75 23.75 0 0 1 -1-7.47c-.58-19.43-.9-40 8.62-56.92"/><path d="m569.44 454c-5.29.59-9.65 3.91-12.53 8.27-3.4 5.16-4.52 11.39-5.33 17.4a163.87 163.87 0 0 0 -1.49 21.11q0 5.29.28 10.58c.16 2.8.28 5.72 1.4 8.32 2.54 5.94 9.28 6 14.8 5.5a1 1 0 0 0 .25-1.85c-4.86-1.44-5.31-7.33-5.44-11.54-.15-4.68-.27-9.37-.26-14.06 0-9.37.64-18.78 2.94-27.89a62.22 62.22 0 0 1 5.7-14.77c.5-.93-.89-1.75-1.41-.83-10 17.65-9.63 39-8.81 58.67.2 4.85 1.46 10.65 6.78 12.23l.25-1.84c-4.54.45-10.54.82-12.92-4-1.15-2.34-1.22-5.13-1.38-7.68-.21-3.28-.31-6.56-.32-9.84a163.84 163.84 0 0 1 1-18.92c.65-5.75 1.41-11.77 3.89-17.07s6.9-9.64 12.72-10.53c.7-.11.55-1.32-.16-1.25z"/><path d="m606.86 439.85c-5.32.63-9.84 4.51-12.48 9.18s-3.68 10.06-4.38 15.37a164.23 164.23 0 0 0 -1.12 33.9c.21 3 .61 6.29 2.66 8.54 3 3.26 8.09 3.06 12.49 2.61a8 8 0 0 1 -5.11-5.19 23.53 23.53 0 0 1 -1-7.48c-.58-19.43-.91-40 8.62-56.91"/><path d="m606.86 439.22c-5.29.58-9.64 3.91-12.52 8.27-3.4 5.15-4.53 11.38-5.34 17.4a165.53 165.53 0 0 0 -1.48 21.11q0 5.29.28 10.58c.16 2.79.28 5.71 1.39 8.32 2.54 5.94 9.28 6.05 14.81 5.49a1 1 0 0 0 .25-1.85c-4.86-1.44-5.32-7.32-5.45-11.53-.14-4.69-.27-9.38-.25-14.06 0-9.37.64-18.78 2.94-27.89a62.13 62.13 0 0 1 5.7-14.78c.5-.92-.9-1.74-1.41-.82-10 17.64-9.63 39-8.81 58.66.2 4.86 1.46 10.66 6.78 12.24l.25-1.85c-4.55.46-10.55.82-12.92-4-1.16-2.35-1.22-5.13-1.38-7.69-.21-3.27-.32-6.56-.33-9.84a166.11 166.11 0 0 1 1-18.92c.65-5.75 1.4-11.77 3.89-17.06s6.9-9.64 12.72-10.54c.7-.1.54-1.32-.17-1.24z"/></g><path d="m440 497.82c-86-54.6-155.46-133.06-244.23-183-15.77-8.82-32.54-16.92-50.56-18.32-7.94-.61-16.18.15-23.31 3.7-12.34 6.13-19.56 19.93-20.76 33.65s2.81 27.4 8.16 40.09c19.44 46.17 56 82.62 92.21 117.28 19.23 18.44 38.67 36.8 60.17 52.53 6.49 4.75 13.34 9.33 21.13 11.31 5.83 1.48 11.93 1.43 17.95 1.23 40.57-1.34 80.68-8.84 120.4-17.25 11.11-2.36 23.13-5.33 30.17-14.25s4.54-25.48-6.63-27.58"/><path d="m440.35 497.23c-26.11-16.75-50.77-35.64-74.81-55.21s-47.24-39.65-71.17-59.11c-23.75-19.3-48.05-38-73.83-54.55-13.14-8.44-26.64-16.65-40.84-23.2-14-6.47-29.91-11.55-45.53-9.68a36.72 36.72 0 0 0 -19.11 7.76 40.38 40.38 0 0 0 -11.43 15.76c-6 14.12-4.28 29.82.31 44.08 9.31 28.89 27.29 54.79 46.84 77.67 20.32 23.76 43.21 45.4 66.05 66.71 12.13 11.32 24.55 22.33 37.71 32.45 6.27 4.83 12.66 9.82 19.81 13.29 7.31 3.55 15 4.53 23.06 4.4 34.93-.55 69.76-6.46 103.93-13.29 8.18-1.63 16.38-3.24 24.51-5.12 6.47-1.51 13-3.41 18.73-7 4.82-3 9-7.22 10.73-12.72a21.79 21.79 0 0 0 -.6-14.85 13.62 13.62 0 0 0 -9.75-8.34c-1.23-.25-1.76 1.64-.52 1.89 10.69 2.19 11.9 16.83 7 24.64-3.47 5.52-9.7 9-15.66 11.19-6.54 2.41-13.45 3.69-20.25 5.11-33.37 7-67 13.14-101.09 15.35-8.27.54-16.77 1.27-25 .52-8-.71-15-4-21.66-8.4-13.44-8.94-25.84-19.66-37.84-30.43s-23.36-21.69-34.82-32.77c-10.65-10.26-21.12-20.65-31.12-31.47-20-21.62-38.3-45.23-50.77-72.06-6.67-14.36-12.35-30.18-10.85-46.26 1.19-12.84 7.9-26 19.68-32.13 13.78-7.14 31.27-3.78 45.2 1.13 14.53 5.13 28 13 41.17 21 25.49 15.41 49.57 33.11 72.91 51.63s46.25 38 69.37 57 46.3 37.47 70.87 54.27q8.94 6.12 18.09 11.89c.74.46 1.42-.71.68-1.18z"/><path d="m837.24 304.09a36.79 36.79 0 0 0 -25.86-8.65c-9.47.45-18.67 3.84-26.74 8.7a71.75 71.75 0 0 0 -21.38 19.86 105.56 105.56 0 0 0 -14.6 30.51c-6.91 22.35-8.67 46.28-6.7 69.52 2 23.08 7.4 46.49 17.61 67.36a137.54 137.54 0 0 0 18.66 28.72c7.24 8.51 15.68 16.23 25.61 21.46 9.28 4.89 19.87 7.63 30.39 6.61a43 43 0 0 0 21.53-8.18c12.77-9.5 20.28-24.55 25.13-39.35 5.93-18.12 8.35-37.43 8.31-56.44-.05-24.3-4.41-48.52-11.84-71.62a286.16 286.16 0 0 0 -13.27-33.66c-4.3-9.19-8.93-18.5-15.77-26.1a41.47 41.47 0 0 0 -11.14-8.93c-.94-.51-1.79.93-.84 1.44 8.86 4.78 14.94 13.25 19.73 21.87a235.83 235.83 0 0 1 13.62 29.93 250.47 250.47 0 0 1 16.21 68.59c1.75 20.55.78 41.44-3.91 61.56-3.5 15-9 30.41-19 42.35a46.08 46.08 0 0 1 -17.18 13.15 43.66 43.66 0 0 1 -25.13 2.21c-21.91-4.25-38.84-21.78-50.57-39.78-12.34-18.93-19.59-40.69-23.53-62.84a195.93 195.93 0 0 1 -.33-69.11c3.83-21.06 11.41-43 27.09-58.25 12.8-12.45 32.73-22 50.76-16.63a34.18 34.18 0 0 1 12.19 6.61c.65.55 1.6-.38 1-1z"/><path d="m831.17 390.06c-5-4.25-12.33-1.08-16.12 3.2-3.08 3.47-4.73 8-5.63 12.54a48.58 48.58 0 0 0 2.18 25.58 31.85 31.85 0 0 0 8.66 12.89 14.75 14.75 0 0 0 8.86 3.75c9.17.3 12.69-10.23 13.78-17.6 1.62-11-.84-22.34-5.54-32.33-1.4-3-3.18-6.42-6.19-8"/><path d="m831.64 389.59c-3.69-3.12-8.61-2.69-12.68-.51-4.68 2.51-7.63 7-9.33 11.95a43.27 43.27 0 0 0 -2 17 46.94 46.94 0 0 0 4.22 16.97c2.32 4.85 5.87 9.7 10.63 12.37 4 2.28 9.14 2.8 13.16.19 3.41-2.22 5.46-6 6.77-9.72a42.89 42.89 0 0 0 2.23-13.89 56.78 56.78 0 0 0 -3.71-19.95 62.85 62.85 0 0 0 -3.89-8.71 14.34 14.34 0 0 0 -5.45-6 .84.84 0 0 0 -.84 1.45c4.08 2.37 6 7.92 7.56 12.11a58.88 58.88 0 0 1 3.69 15.91 48.06 48.06 0 0 1 -.8 14.21 24.94 24.94 0 0 1 -4 9.7 9.55 9.55 0 0 1 -9.29 3.95c-5-.8-9-4.81-11.67-8.86-5.73-8.56-7.59-20.11-6-30.19.85-5.43 2.67-11.19 6.84-15 3.61-3.28 9.47-5.41 13.7-2 .67.53 1.62-.39.95-1z"/><path d="m804.07 321.59c-4 1.44-7.08 4.36-9.86 7.48a101.59 101.59 0 0 0 -7.53 9.65 103.75 103.75 0 0 0 -11.39 21.86 106.69 106.69 0 0 0 -6.5 48.77 77.79 77.79 0 0 0 2.3 13.39c.36 1.28 1.65 3.78 3.4 3s2.5-3.63 2.36-5.36a.87.87 0 0 0 -1.09-.83c-4.89 1.22-3 8.86-2.48 12.23a90 90 0 0 0 5 18.45c.38 1 2 .58 1.61-.44a99.94 99.94 0 0 1 -4.4-15.79 72.86 72.86 0 0 1 -1.17-7.91c-.13-1.67-.11-4.43 1.9-4.94l-1.09-.83a4.55 4.55 0 0 1 -1.68 4l.61-.25c-1.49-.17-1.77-3.76-2-4.85q-.55-2.61-1-5.25a100.55 100.55 0 0 1 -1.06-10.97 106.3 106.3 0 0 1 16.86-61.91 97.84 97.84 0 0 1 7.39-10c2.82-3.35 5.91-6.75 10.12-8.31.75-.27.43-1.49-.34-1.22z"/><path d="m782.41 463.74c2.18 5.14 4.32 10.29 6.55 15.41.29.66 1.48.18 1.19-.51-2.15-5.2-4.4-10.37-6.62-15.55-.33-.77-1.45-.11-1.12.65z"/><path d="m813.42 321.23a.7.7 0 0 0 0-1.39.7.7 0 0 0 0 1.39z"/><path d="m820 320.6h.33a.55.55 0 0 0 .28-.07.57.57 0 0 0 .23-.15.51.51 0 0 0 .15-.23.46.46 0 0 0 .06-.28v-.19a.74.74 0 0 0 -.19-.32l-.15-.12a.74.74 0 0 0 -.36-.09h-.35a.55.55 0 0 0 -.28.07.62.62 0 0 0 -.23.14.51.51 0 0 0 -.14.23.55.55 0 0 0 -.07.28v.19a.78.78 0 0 0 .18.32l.15.11a.75.75 0 0 0 .36.1z"/><path d="m856.45 397.48a93 93 0 0 1 2.88 48.12 98.49 98.49 0 0 1 -3.7 13.16c-.32.9 1.09 1.27 1.41.39a93.57 93.57 0 0 0 .69-62c-.28-.8-1.55-.46-1.28.35z"/><path d="m873.16 427.54a59.43 59.43 0 0 1 -5 32.91c-.39.83.84 1.56 1.23.72a59.79 59.79 0 0 0 5-34c-.12-.82-1.35-.47-1.23.34z"/><path d="m42.5 533.05c30.05-6.49 58.18-19.22 87.24-28.9 8.16-2.71 16.4-5 24.68-7.27a.81.81 0 0 0 -.43-1.56 214.77 214.77 0 0 0 -22.08 6.36c-7.28 2.39-14.5 5-21.69 7.67-14.38 5.34-28.67 10.93-43.29 15.65-8.16 2.61-16.42 4.93-24.79 6.77-.85.19-.49 1.5.36 1.31z"/><path d="m159.33 495 .42 2.19a.71.71 0 0 0 .31.41.73.73 0 0 0 .54.07.72.72 0 0 0 .48-.85l-.49-2.17a.65.65 0 0 0 -.8-.45.66.66 0 0 0 -.46.8z"/><path d="m159.68 495.36 1.55.67c.56.24 1.11.49 1.68.7a.69.69 0 0 0 .53-1.26c-.5-.25-1-.45-1.52-.67l-1.53-.66a.8.8 0 0 0 -.55-.07.73.73 0 0 0 -.42.33.7.7 0 0 0 .26 1z"/><g fill="#18c4ff"><path d="m434.16 416.56c2.61 9.56 7.1 19.57 16.58 24a18.49 18.49 0 0 0 13.9 1.06 35.63 35.63 0 0 0 7-3.57q3.69-2.28 7.34-4.63a117.25 117.25 0 0 0 15.08-11.42c.7-.64-.34-1.67-1-1a104.9 104.9 0 0 1 -12.64 9.44 148.22 148.22 0 0 1 -13.16 8.13 17.15 17.15 0 0 1 -13.81 1.22 23.32 23.32 0 0 1 -11.16-8.62 48 48 0 0 1 -6.78-14.95.68.68 0 0 0 -1.31.36z"/><path d="m496.49 422.15h.33a.51.51 0 0 0 .25-.06.46.46 0 0 0 .21-.13.49.49 0 0 0 .14-.21.43.43 0 0 0 .05-.25v-.17a.61.61 0 0 0 -.17-.29l-.13-.1a.63.63 0 0 0 -.33-.09h-.33a.44.44 0 0 0 -.25.06.45.45 0 0 0 -.22.13.74.74 0 0 0 -.14.22.47.47 0 0 0 -.05.26v.18a.66.66 0 0 0 .17.29l.14.11a.63.63 0 0 0 .33.09z"/><path d="m180.68 460.24a563.09 563.09 0 0 0 72-22.91q9.82-3.87 19.48-8.13c.83-.37.11-1.58-.72-1.22a572.84 572.84 0 0 1 -70.65 25.51q-10.17 2.91-20.44 5.45c-.83.21-.48 1.5.36 1.3z"/><path d="m206.2 473.28q26.24-9 52.1-19 7.41-2.88 14.77-5.83c.75-.3.42-1.53-.34-1.23q-25.73 10.35-51.86 19.64-7.49 2.67-15 5.23c-.74.26-.42 1.45.33 1.19z"/><path d="m265.94 465.69 6.54-2c.86-.26.49-1.63-.38-1.36l-6.53 2c-.86.27-.49 1.61.37 1.35z"/><path d="m539.5 662.36q24.71-7.59 48.93-16.65c.78-.29.44-1.55-.35-1.25q-24.21 9-48.93 16.64c-.8.25-.46 1.51.35 1.26z"/><path d="m560.39 673.85a213.38 213.38 0 0 0 44-17.93c.75-.4.09-1.54-.66-1.14a222.56 222.56 0 0 1 -43.7 17.91.6.6 0 0 0 .32 1.16z"/><path d="m590.36 679.35a155.7 155.7 0 0 1 17.3-8.25c.83-.33.46-1.69-.37-1.35a158 158 0 0 0 -17.6 8.46c-.74.41-.08 1.55.67 1.14z"/></g><g fill="#fff"><path d="m523.82 411.28c11.87-2.64 23.2-7.12 34.35-11.9 11.38-4.89 22.67-9.93 34.28-14.27 23.4-8.74 47.54-15.38 71.86-21q10.16-2.35 20.34-4.49c3.39-.72 6.79-1.45 10.19-2.11 2.23-.44 5.65-.95 7 1.4l.15-1.19a6.63 6.63 0 0 1 -3.41 2.27l1.2 1.21c.71-3.31 3.77-5.14 6.69-6.34a90.75 90.75 0 0 1 11.84-3.6 161.44 161.44 0 0 1 26.48-4.35c1-.08 1.05-1.66 0-1.61a141.12 141.12 0 0 0 -28.37 4.46 68.93 68.93 0 0 0 -12 3.88c-3 1.42-5.81 3.64-6.54 7a1 1 0 0 0 1.2 1.2 8.52 8.52 0 0 0 4.28-2.77 1 1 0 0 0 .15-1.19c-2.55-4.43-9-2.35-12.92-1.55q-9.27 1.9-18.51 3.95c-12.55 2.78-25.05 5.82-37.44 9.25s-24.49 7.19-36.5 11.5-23.54 9.22-35.1 14.38c-12.86 5.74-25.84 11.38-39.6 14.56-.84.19-.49 1.47.36 1.29z"/><path d="m762 348 6.1 1a.7.7 0 0 0 .82-.47.68.68 0 0 0 -.47-.83l-6.12-.89a.66.66 0 0 0 -.78.45.63.63 0 0 0 .45.77z"/><path d="m42.08 558.94q30.15-11.27 60.56-21.83t60.81-20.37q8.53-2.76 17.09-5.45l8.44-2.65 4.46-1.39a4.75 4.75 0 0 1 1.62-.31c.1 0 1.35.19 1.24.42l1.54.65a5.47 5.47 0 0 1 .72-2.34 1.05 1.05 0 0 1 1-.53c.37.05.77.4.52.73-.56.73.69 1.71 1.28 1 1.15-1.41 0-3.23-1.71-3.45-2.29-.3-3.12 2.4-3.4 4.15-.13.86 1.1 1.59 1.55.65.69-1.45-.35-2.49-1.75-2.8-2.1-.47-4.33.68-6.29 1.3q-8.08 2.54-16.16 5.12-16.2 5.16-32.28 10.52-32.05 10.64-63.85 22.14-17.93 6.45-35.75 13.15c-.8.3-.45 1.59.36 1.29z"/></g><path d="m591.46 282.34c-4.45-.06-6.24 4.77-7.23 8.35q-2.4 8.76-4.39 17.63-4 17.73-6.51 35.74a450.5 450.5 0 0 0 3.22 144.38q3.32 17.87 8.08 35.42a328.6 328.6 0 0 0 10.42 32.6c3.8 9.82 8.4 19.43 14.58 28a78.13 78.13 0 0 0 10.21 11.66c3.3 3.07 7.72 7.26 12.66 5.74a5.84 5.84 0 0 0 4-3.78c.42-1.26-1.56-1.79-2-.55-.87 2.55-4 2.93-6.23 2.14-2.52-.91-4.62-2.93-6.56-4.71a75.78 75.78 0 0 1 -10.11-11.36 120 120 0 0 1 -14.14-26.73 309.4 309.4 0 0 1 -9.94-30.46q-4.66-16.65-8-33.63a449.55 449.55 0 0 1 -5.52-137.4q1.93-17.19 5.22-34.2 1.64-8.49 3.61-16.9 1-4.29 2.07-8.55a60.3 60.3 0 0 1 2-7.36c.8-2 2.16-4.36 4.56-4.51a.76.76 0 0 0 0-1.52z"/><path d="m596.58 282.54c-4.12-1.14-8.41-2.23-12.07-4.52-4.09-2.56-6.28-6.54-7.36-11.16-.47-2-.86-4.45.19-6.36s3.53-2.41 5.62-2.2c4.38.43 8.18 3.29 10.85 6.63 3.52 4.39 5.28 9.94 7 15.2.33 1 1.92.6 1.61-.44-2.8-9.57-7.45-21.66-18.85-23.22a8.38 8.38 0 0 0 -6.44 1.4 7.26 7.26 0 0 0 -2.29 6.23c.28 4.87 2.38 10.18 6 13.48 4.22 3.8 10 5.16 15.38 6.16a.62.62 0 0 0 .33-1.2z"/><path d="m604.34 279.58c-1.74-8 .36-16.95 6.79-22.34a9.4 9.4 0 0 1 6.31-2.54 6.27 6.27 0 0 1 4.79 3c2.75 4.21 1.27 9.4 0 13.85l1.17-.67-.25-.31a.88.88 0 0 0 -1.61.68 2.22 2.22 0 0 0 1.13 1.38 1 1 0 0 0 1.4-.57c1.15-4.09 2.39-8.61.94-12.79-1.11-3.19-3.66-6-7.17-6.34-3.88-.37-7.43 2.22-9.85 5a23.78 23.78 0 0 0 -5.06 9.65 21.81 21.81 0 0 0 .25 12.3.61.61 0 0 0 1.17-.32z"/><g fill="#18c4ff"><path d="m174.72 746.91a527 527 0 0 1 70.94-2.91c6.69.18 13.37.47 20 .94a.93.93 0 0 0 .79-1.39 19.24 19.24 0 0 1 -.63-19.49c3.45-6.33 10.37-9.53 17.44-9a18.22 18.22 0 0 1 10.84 4.65c.72.66 2.14 0 1.76-1-4.53-12.65-2.94-29.2 7.11-38.89a24.28 24.28 0 0 1 21.05-6.2 35.52 35.52 0 0 1 21.44 13.16c6.54 8.17 9.95 18.39 12.14 28.49a1.13 1.13 0 0 0 2.17 0 14.76 14.76 0 0 1 13.3-10.27c6.22-.34 11.48 3.91 13.4 9.69a14.07 14.07 0 0 1 -.25 9.84c-.52 1.27 1.44 2 2.12.9a11.2 11.2 0 0 1 13-4.36 11.53 11.53 0 0 1 6.89 12.35c-.24 1.2 1.6 1.72 1.84.51a12.73 12.73 0 0 0 -1.13-8.9 13.08 13.08 0 0 0 -6.66-6.1 13.53 13.53 0 0 0 -16 5.32l2.13.9c2.64-6.43.36-14.34-4.86-18.81-5.45-4.67-13.28-4.65-19.17-.75a16.22 16.22 0 0 0 -6.79 9h2.17c-2.07-9.53-5.24-19.08-10.95-27.1-5.26-7.37-12.81-13.2-21.81-15.49-8-2-16.58-.8-23.19 4.25-5.73 4.38-9.39 11-11.14 17.86a43.53 43.53 0 0 0 1.16 25.14l1.76-1a21.18 21.18 0 0 0 -21.81-3.86 20.56 20.56 0 0 0 -8.92 30.08l.8-1.38a566.5 566.5 0 0 0 -71 .53q-10 .74-20 1.85c-.9.1-.92 1.53 0 1.43z"/><path d="m289.71 320.74 13.08-.58 6.42-.28a55.25 55.25 0 0 0 5.9-.31c3.73-.54 3.23-4.15 4.09-7a11 11 0 0 1 6.35-7.28c3.25-1.17 7.48-.29 9.41 2.75a.9.9 0 0 0 1.63-.69 34.37 34.37 0 0 1 8.77-32.24c4.47-4.5 10.79-8.32 17.35-7.82 6.06.46 11.31 4.73 14.42 9.74 4.28 6.91 4.91 15.38 5 23.3l2-.27a8.83 8.83 0 0 1 5.8-10.49c4.43-1.26 8.87 1.6 10.61 5.63.4.93 1.87.26 1.61-.68-1.44-5.26-7.76-8.44-12.92-6.85a10.9 10.9 0 0 0 -7 12.93 1 1 0 0 0 2-.27c-.11-7.66-.75-15.6-4.3-22.54-2.89-5.64-8.1-10.57-14.38-12.07-7-1.66-14 1.52-19.3 5.95a35.44 35.44 0 0 0 -10.44 15.2 33.82 33.82 0 0 0 -.87 20.95l1.63-.68c-3.76-5.32-11.45-5.18-15.74-.59-2.41 2.58-3.22 5.61-3.8 9-.16 1-.44 1.92-1.46 2.28a12.81 12.81 0 0 1 -3.33.33l-6.91.4-15.55.9c-.8.05-.81 1.28 0 1.25z"/><path d="m745.9 650.8a510.21 510.21 0 0 0 55-.86 1 1 0 0 0 .94-.93c-.41-6.13.6-14.21 6.43-17.69 4.11-2.45 11.18-2 13.09 3.09.3.79 1.77 1.08 1.92 0 1.19-8.76 3.2-18.3 9.4-25a18.34 18.34 0 0 1 19.62-5 11.54 11.54 0 0 1 7.41 7.46l2-.55c-6.42-15.36 3.68-33.95 19.45-38.19a34.18 34.18 0 0 1 24.57 3.14 35.25 35.25 0 0 1 16.78 19.73 43.59 43.59 0 0 1 -.91 30.36l2.2.61a18.54 18.54 0 0 1 14.91-11.68 15.68 15.68 0 0 1 15.65 8.86 14.48 14.48 0 0 1 1.17 10.35 1.17 1.17 0 0 0 2.25.62 10.39 10.39 0 0 1 8.56-6.6 8.83 8.83 0 0 1 5.52 1.05 3.6 3.6 0 0 1 1.94 2.43c.09.94-.75 2.37-1.85 2s-1.62 1.41-.49 1.79c2.93 1 5.42-2.15 4.48-4.92s-4.25-4.34-7.07-4.67a12.81 12.81 0 0 0 -13.34 8.3l2.25.62c2-7.2-1.49-14.87-7.43-19.11-6.3-4.51-14.82-3.81-21 .49a20.62 20.62 0 0 0 -7.71 9.86c-.52 1.39 1.66 2 2.2.61 7.18-17.88 2.4-40.57-14.47-51.21a37.23 37.23 0 0 0 -26-5.36 30.73 30.73 0 0 0 -20.68 14.11c-5 8-6.67 18.41-2.94 27.31.5 1.18 2.39.76 2-.55-2.23-7.49-10.4-10.64-17.64-9.85a19.62 19.62 0 0 0 -10.38 4.22 29.71 29.71 0 0 0 -8.28 11.71 65.42 65.42 0 0 0 -4.05 16.5h1.92c-2.28-6-9.93-7.27-15.24-4.67-7.08 3.5-8.61 12.82-8.08 19.82l.93-.93a523.5 523.5 0 0 1 -55 1.44.64.64 0 0 0 0 1.28z"/></g><g fill="#fff"><path d="m142.15 541.79-20.5 39.51a35.51 35.51 0 0 0 18.87 3.07 163.82 163.82 0 0 0 -5 31.52 462 462 0 0 0 33-47.39l-18.09-3.44a3.4 3.4 0 0 1 -2-.89 3.22 3.22 0 0 1 -.56-2.08c-.27-10 3.06-20.23.41-29.88l-5.77 7.55"/><path d="m141.54 541.44c-3.66 6.44-7 13.06-10.49 19.61l-10.38 19.68a1.15 1.15 0 0 0 .41 1.55 36.52 36.52 0 0 0 19.44 3.21l-1.09-1.42a170.24 170.24 0 0 0 -5 31.82 1.1 1.1 0 0 0 1.87.77 462.2 462.2 0 0 0 33.18-47.66 1.08 1.08 0 0 0 -.63-1.57l-13.7-2.58-3.18-.6c-.81-.15-2.33-.16-2.84-.93s-.24-2.28-.23-3.12c0-1.08.06-2.16.13-3.24.54-8.36 2.39-16.77.16-25a.94.94 0 0 0 -1.7-.22l-5.73 7.57c-.69.92.85 1.79 1.54.9l5.8-7.53-1.7-.23c2.34 9-.31 18.25-.53 27.33 0 1.73-.34 4.11 1.13 5.37s3.88 1.22 5.62 1.56l14.66 2.81-.63-1.56a467.89 467.89 0 0 1 -32.86 47.15l1.87.78a165.48 165.48 0 0 1 4.94-31.22 1.13 1.13 0 0 0 -1.08-1.43 35.52 35.52 0 0 1 -18.3-2.92l.41 1.55 10.12-19.87c3.37-6.61 6.84-13.19 10-19.9.38-.8-.76-1.5-1.21-.7z"/></g></svg>