<?xml version="1.0" encoding="utf-8"?><!-- Uploaded to: SVG Repo, www.svgrepo.com, Generator: SVG Repo Mixer Tools -->
<svg fill="#000000" width="800px" height="800px" viewBox="0 0 24 24" id="delivery-truck-left" data-name="Flat Color" xmlns="http://www.w3.org/2000/svg" class="icon flat-color"><path id="primary" d="M3.52,9.84l.68-.17.63-2.23A2,2,0,0,1,6.75,6H10a2,2,0,0,1,2-2h8a2,2,0,0,1,2,2V16a2,2,0,0,1-2,2H4a2,2,0,0,1-2-2V11.78A2,2,0,0,1,3.52,9.84Z" style="fill: rgb(0, 0, 0);"></path><path id="secondary" d="M17,14a3,3,0,1,1-3,3A3,3,0,0,1,17,14ZM4,17a3,3,0,1,0,3-3A3,3,0,0,0,4,17Zm8-9a1,1,0,0,0,1,1h6a1,1,0,0,0,0-2H13A1,1,0,0,0,12,8Z" style="fill: rgb(44, 169, 188);"></path></svg>