<?xml version="1.0" ?><svg id="Layer_1" style="enable-background:new 0 0 120 120;" version="1.1" viewBox="0 0 120 120" xml:space="preserve" xmlns="http://www.w3.org/2000/svg" xmlns:xlink="http://www.w3.org/1999/xlink"><style type="text/css">
	.st0{fill:#70C4FF;}
	.st1{fill:#69DD5F;}
	.st2{fill:#FFDA75;}
	.st3{fill:#FFFFFF;}
</style><g><circle class="st0" cx="60" cy="60" r="39.2"/><path class="st1" d="M99.2,60c0,1,0,1.9-0.1,2.9h-6.9c-1.4,0-2.6-1.2-2.6-2.6c0-1.4,1.2-2.6,2.6-2.6h-8.1c-3.3,0-5.9-2.6-5.9-5.9   V50c0-3.1,2.3-5.6,5.3-5.9c-0.4-0.6-0.6-1.4-0.6-2.1v-1.2c0-2.4,2-4.4,4.4-4.4h4.1C96.3,43,99.2,51.2,99.2,60z"/><path class="st1" d="M33.7,89.1c-0.7-0.6-1.4-1.3-2-2C32.8,87.2,33.6,88,33.7,89.1z"/><path class="st1" d="M50.7,79.5h-2.9c2.4,0,4.3,1.9,4.3,4.3s-1.9,4.3-4.3,4.3H35.2c1.5,0,2.7,1.2,2.7,2.7c0,0.5-0.1,0.9-0.4,1.3   c-1.4-0.9-2.7-2-3.9-3.1c-0.7-0.6-1.4-1.3-2-2c0,0,0,0,0,0c-5-5.3-8.6-12-10.1-19.4h1.8c-0.7,0-1.3-0.1-1.9-0.3   c-0.4-2-0.6-4.1-0.7-6.2c0-0.4,0-0.7,0-1.1V60c0-1.2,0-2.3,0.2-3.4c0.2-0.6,0.3-1.2,0.5-1.8c0.6-0.2,1.3-0.3,1.9-0.3h22.2   c3.6,0,6.6,2.9,6.6,6.6c0,3.6-3,6.6-6.6,6.6h5.2c3.3,0,5.9,2.6,5.9,5.9S54,79.5,50.7,79.5z"/><g><path class="st2" d="M101.9,22.9c-3.2-3.7-10.4-3-20.8,1.9c-0.6,0.3-1.2,0.6-1.9,0.9C69.8,30.5,59,38.1,48.7,47.2    c-9.9,8.8-19,18.8-25,27.7c-6.4,9.6-9.3,18-5.6,22.1c1.4,1.6,3.5,2.3,6.2,2.3c3.7,0,8.7-1.4,14.6-4.3c0.6-0.3,1.2-0.6,1.9-0.9    c-0.8-0.5-1.6-0.9-2.4-1.5c-0.2,0.1-0.3,0.2-0.5,0.2c-8.9,4.2-15.7,5.2-18,2.5c-2.4-2.7-0.7-9.4,5-18.1    c5.2-8.2,13.8-18.1,25.4-28.4C61,39.5,72,31.8,81.6,27.3c0.2-0.1,0.3-0.2,0.5-0.2c5.6-2.6,10.3-4,13.6-4c2,0,3.5,0.5,4.4,1.5    c2.4,2.7,0.6,9.2-4.7,17.6c-0.1,0.1-0.2,0.3-0.3,0.4c0.4,0.8,0.8,1.7,1.2,2.6c0.4-0.6,0.8-1.2,1.1-1.7    C103.5,33.7,105.1,26.6,101.9,22.9z"/></g><path class="st3" d="M62.7,34.9c-1.6-0.1-3.2,0.5-4.4,1.5l-5.9,5.7l-12.4-3.7L35.7,42l11,5.5l-8,7.6l-2.8-1.3l-3.3,2.8l4.9,2.6   l1.9,5.2l3.3-2.8l-0.9-2.9l8.7-6.8l3.8,11.7l4.2-3.6l-1.8-12.9l6.5-5c1.3-1,2-2.5,2.2-4.1C65.3,36.4,64.2,35,62.7,34.9z"/></g></svg>