<?xml version="1.0" ?><svg viewBox="0 0 1000 1000" xmlns="http://www.w3.org/2000/svg"><path d="m327.18 666.34c-5.51-.91-11.17 1.33-15.51 4.85s-7.55 8.19-10.55 12.89a289.92 289.92 0 0 0 -14.85 26c-2.1 4.18-4.13 8.48-4.86 13.1-.92 5.9.33 11.9 1.57 17.74.35 1.63.76 3.38 2 4.47a7.54 7.54 0 0 0 2.9 1.33 105.64 105.64 0 0 0 44.87 3"/><path d="m327.39 665.57c-9.44-1.65-17.61 4.64-23 11.71a141.5 141.5 0 0 0 -8.3 12.67q-4.08 6.7-7.77 13.65a106.73 106.73 0 0 0 -6.63 13.86 32.19 32.19 0 0 0 -1.47 15.15c.33 2.6.83 5.18 1.37 7.75.44 2.12.85 4.46 2.54 6s4.3 1.93 6.42 2.47q3.76 1 7.61 1.66a108.34 108.34 0 0 0 35 .5c1.63-.24.94-2.71-.68-2.47a104.16 104.16 0 0 1 -43.28-2.71 11.35 11.35 0 0 1 -2.85-1 4.21 4.21 0 0 1 -1.73-2.64 66.41 66.41 0 0 1 -1.47-7c-.87-4.88-1.16-9.84.18-14.67 1.28-4.62 3.58-8.9 5.78-13.13a271.06 271.06 0 0 1 14.49-24.83c5.32-8 12.93-16.75 23.63-15.38.88.11 1.09-1.41.21-1.57z"/><circle cx="845.65" cy="763.75" r="63.86"/><path d="m907.52 763.75a61.87 61.87 0 0 1 -109.59 39.4 61.89 61.89 0 0 1 -5.2-71.48 61.84 61.84 0 0 1 114.79 32.08c0 2.55 4 2.56 4 0a66 66 0 0 0 -12.11-38 65.82 65.82 0 0 0 -71.72-25.31 65.85 65.85 0 1 0 83 73.57 69.79 69.79 0 0 0 .8-10.21c0-2.61-3.97-2.61-3.97-.05z"/><circle cx="845.65" cy="763.75" fill="#fff" r="24.53"/><path d="m868.19 763.75a22.55 22.55 0 1 1 -18.25-22.14 22.76 22.76 0 0 1 18.25 22.14c0 2.55 4 2.56 4 0a26.52 26.52 0 1 0 -21.17 26 26.83 26.83 0 0 0 21.17-26c-.01-2.56-3.99-2.56-4 0z" fill="#fff"/><path d="m834.94 691q9.1 31.86 21.15 62.78c1.06 2.73 2.16 5.53 2.24 8.46.36 13.2-19.33 19.53-25.11 6.81q-3.24-7.14-6-14.5c-1.57-4.25-4.46-9.7-3.93-14.34a13.87 13.87 0 0 1 1.46-4.1 57.33 57.33 0 0 0 5.32-25.22"/><path d="m834.58 691.14q5.37 19.35 11.95 38.32 3.24 9.36 6.75 18.64c1.17 3.12 2.52 6.2 3.54 9.36a14.67 14.67 0 0 1 .64 7.84c-1.57 6.83-9.26 11.33-16 9.88-4-.85-6.49-3.64-8.11-7.24-2.58-5.74-4.74-11.62-7.1-17.44-1.17-2.89-2.41-6-2.39-9.14a12.89 12.89 0 0 1 1.64-5.34c.64-1.43 1.24-2.88 1.77-4.36a58.34 58.34 0 0 0 3.43-20.73.56.56 0 0 0 -1.12 0 57.54 57.54 0 0 1 -3.23 20c-.59 1.67-1.27 3.32-2 4.93a14.87 14.87 0 0 0 -1.52 4.23 17.63 17.63 0 0 0 1.31 8c1 2.83 2.22 5.6 3.29 8.41q1.8 4.74 3.81 9.38c1.75 4 3.47 7.87 7.76 9.68 6.43 2.72 14.54-.37 18.08-6.25 2.47-4.08 2.12-8.68.58-13.05-2.33-6.66-5-13.18-7.45-19.82q-8.14-22.51-14.88-45.52a.37.37 0 0 0 -.71.2z"/><path d="m756.19 760.27h166s16.26-123.15-115.76-141.37l-39.9 81.48" fill="#18c4ff"/><path d="m756.19 761q32.4.31 64.8.36t64.81.06h36.39a1.18 1.18 0 0 0 1.15-1.15c.15-1.11.23-2.23.32-3.35.22-3 .32-6.08.33-9.13q0-6.85-.59-13.7a154.81 154.81 0 0 0 -2.45-17 137.46 137.46 0 0 0 -5.21-18.88 123.86 123.86 0 0 0 -9-19.65 111.31 111.31 0 0 0 -32.59-36 127.47 127.47 0 0 0 -25.38-13.85 164.3 164.3 0 0 0 -32.81-9.5c-3.07-.57-6.16-1.06-9.25-1.49a1.3 1.3 0 0 0 -1.41.57l-4 8.12-9.5 19.38-11.54 23.57c-3.33 6.79-6.62 13.6-9.93 20.41-1.6 3.29-3.38 6.55-4.82 9.91l-.07.14c-.66 1.36 1.37 2.55 2 1.19 1.32-2.71 2.66-5.4 4-8.11l9.54-19.35c3.87-7.85 7.69-15.71 11.54-23.57l10-20.39 3.27-6.69a18 18 0 0 0 1.57-3.21.83.83 0 0 1 .07-.13l-1.41.57a179.88 179.88 0 0 1 34.49 8.08 132.24 132.24 0 0 1 26.78 12.73 111.48 111.48 0 0 1 20.26 16.22 108.6 108.6 0 0 1 14.52 18.36 118.17 118.17 0 0 1 9.7 19.14 135 135 0 0 1 5.91 19 149 149 0 0 1 3 17.16c.53 4.75.84 9.53.93 14.31.06 3.41 0 6.82-.18 10.23-.09 1.56-.44 3.22-.39 4.78a1.52 1.52 0 0 1 0 .21l1.15-1.15-64.81.07q-32.4 0-64.8.14-18.2.07-36.39.25a.69.69 0 0 0 0 1.38z" fill="#18c4ff"/><path d="m767.11 699.89-10.34 59.89h45a33.63 33.63 0 0 0 33.59-31.94c1.46-29.23 3.27-65.78 4.18-102a180.59 180.59 0 0 0 -32.54-7.44z"/><path d="m766.16 699.63-3.5 20.25-5.58 32.27-1.27 7.37a1 1 0 0 0 1 1.25h44.46a35.09 35.09 0 0 0 30.55-17.38 34.26 34.26 0 0 0 3.77-9.77 70 70 0 0 0 1.02-11.62q.69-13.82 1.34-27.64c.94-20.27 1.77-40.55 2.34-60.84.08-2.55.14-5.11.21-7.66a1 1 0 0 0 -.73-1 183.59 183.59 0 0 0 -32.49-7.42 1 1 0 0 0 -1.12.45l-4 8.12-9.49 19.39-11.52 23.6-10 20.39c-1.61 3.28-3.41 6.53-4.85 9.89l-.06.14c-.56 1.14 1.15 2.15 1.71 1l4-8.12 9.49-19.38 11.56-23.6 10-20.38 3.27-6.69 1-2.09a6.12 6.12 0 0 0 .55-1.12s0-.09.06-.14l-1.12.46a183.61 183.61 0 0 1 32.49 7.43l-.73-1c-.5 20.07-1.27 40.14-2.17 60.2q-.62 13.89-1.31 27.76l-.63 12.85a36.49 36.49 0 0 1 -2 10.85 33 33 0 0 1 -30.69 21.3c-7.1 0-14.19 0-21.29 0h-14.67c-2.81 0-5.76-.25-8.56 0h-.43l1 1.25 3.5-20.25 5.57-32.26 1.27-7.37c.18-1.21-1.74-1.75-1.95-.49z"/><circle cx="392.57" cy="750.67" r="76.93"/><path d="m467.52 750.67a74.39 74.39 0 1 1 -.87-11.58 75.38 75.38 0 0 1 .87 11.58c0 2.56 4 2.56 4 0a78.86 78.86 0 1 0 -1 12.3 83 83 0 0 0 1-12.3c-.02-2.55-3.99-2.56-4 0z"/><g fill="#fff"><circle cx="392.57" cy="750.67" r="29.55"/><path d="m420.14 750.67a27.43 27.43 0 1 1 -.32-4.3 28.1 28.1 0 0 1 .32 4.3c0 2.56 4 2.56 4 0a31.6 31.6 0 1 0 -.41 5 35.16 35.16 0 0 0 .41-5c-.02-2.56-3.99-2.56-4 0z"/><rect height="124.75" rx="8.13" width="136.7" x="335.77" y="425.68"/></g><g fill="#18c4ff"><path d="m582.27 625a298.54 298.54 0 0 1 -10.47-57c-1-12.39-1.19-25.47 4.54-36.51-4.13-1.42-8.62-1-13-.78a185.36 185.36 0 0 1 -56.78-5.53 19.88 19.88 0 0 1 -8.6 20c-4.83 3.09-10.71 3.87-16.24 5.36-10.51 2.83-20.08 8.33-29.51 13.77-7.76 4.48-15.67 9.07-21.66 15.73-4 4.43-7 9.68-11.43 13.69"/><path d="m582.94 624.84a324.82 324.82 0 0 1 -7.84-37.56q-1.38-9.36-2.13-18.79a120.3 120.3 0 0 1 -.35-17.5 47.91 47.91 0 0 1 4.81-18.84 1.28 1.28 0 0 0 -.76-1.86c-4.16-1.37-8.54-1.12-12.86-.87-4.55.26-9.12.37-13.68.3a185.87 185.87 0 0 1 -27.66-2.5q-7.85-1.32-15.54-3.29a1.34 1.34 0 0 0 -1.63 1.63 18.67 18.67 0 0 1 -6.51 17.44c-2.94 2.4-6.64 3.6-10.27 4.54-3.84 1-7.7 1.78-11.46 3.07-7.7 2.64-14.9 6.51-21.95 10.54-6.72 3.83-13.55 7.6-19.59 12.46a54 54 0 0 0 -8.87 9.13c-2.68 3.46-5.2 7.11-8.35 10.18-1.09 1.07.54 2.66 1.67 1.66a58.49 58.49 0 0 0 7.73-8.89 57.78 57.78 0 0 1 7.9-8.71c6-5.26 13.15-9.14 20-13.1 7.37-4.22 14.88-8.35 23-11 7.34-2.4 15.69-2.87 21.9-7.89a21.29 21.29 0 0 0 7.33-20.15l-1.62 1.63a186.9 186.9 0 0 0 54.79 5.67c5-.23 10.18-1 15 .59l-.75-1.86c-5.43 10.67-5.71 22.85-4.81 34.54a284.74 284.74 0 0 0 5.65 38.44q2.32 10.8 5.52 21.36a.69.69 0 0 0 1.33-.37z"/><path d="m745.49 760.27h-438a10.68 10.68 0 0 1 -10.63-11.27c1.74-29.86 12.1-111.58 72.69-155.8 75.06-54.77 200.15-54.77 212.32-6.08 9.61 38.43 6.58 105.77 4.88 132.43a10.64 10.64 0 0 0 10.63 11.32h148.11v20.53"/><path d="m745.49 759.52h-12.59l-34-.12c-16.7-.05-33.41 0-50.12-.07q-30.25 0-60.5-.07h-65.61-65.3-59.57-48.56-31.86c-6.35 0-15.35 1.49-18.56-5.58-1.76-3.87-.52-9.45-.13-13.58q.66-7 1.67-14a274 274 0 0 1 7.28-34.48c7.79-27.74 20.4-54.6 39.61-76.3 20.75-23.5 48.75-39.2 77.97-49.32 27.45-9.5 56.93-14.54 86-13.29a137.05 137.05 0 0 1 35.63 5.78c9.08 2.88 18.13 7.12 25 13.9a33.7 33.7 0 0 1 7.15 10.1c2.26 5 3.1 10.82 4 16.24 2.66 15.53 3.61 31.35 4.06 47.09.44 15.53.28 31.07-.26 46.6q-.33 9.38-.84 18.75c-.3 5.5-1.64 11.65 2 16.35s9 4.6 14.29 4.6h81.65q26.61 0 53.22 0h8.35l-1.23-1.24v20.56a1.19 1.19 0 0 0 2.38 0c0-6.85 0-13.7 0-20.56a1.25 1.25 0 0 0 -1.23-1.23l-32.25-.05q-32.16 0-64.32 0h-47.54c-1.24 0-2.47 0-3.7 0-6.32-.13-9.86-5.13-9.49-11.12q1.17-18.72 1.58-37.47c.34-16.13.27-32.28-.62-48.39-.82-15-2.18-30.17-5.71-44.81-4.57-18.94-23.3-28.52-40.74-33.11-25.65-6.75-53.38-5.56-79.3-1-30 5.23-59.57 15.78-85.28 32.26a153.84 153.84 0 0 0 -35.11 30.6 176.63 176.63 0 0 0 -23.85 37.44c-11 23-17.71 48-21.2 73.15q-.94 6.87-1.58 13.79c-.37 4.23-1.36 9.21.33 13.23 2.17 5.17 7.11 7.25 12.35 7.25h60.8 54.78 63.36 66.79q32.22 0 64.44-.05l56.32-.08q21.52 0 43-.1l23.94-.07h3.07a.76.76 0 0 0 0-1.51z"/><path d="m770.33 454c5.45-10.27 4.17-22.84.87-34s-8.46-21.77-10.52-33.22-.38-24.49 8.1-32.44c6-5.65 14.41-7.84 22.42-9.83 16.2-4 32.5-8 49.14-9.33 2.75-.22 5.88-.22 7.8 1.76a9.4 9.4 0 0 1 2.05 5c2.34 12.63 2.44 25.58 1.62 38.39-.64 10.11-2.88 21.77-11.84 26.5-8.76 4.63-22.33 1.7-26.71 10.58-1.18 2.39-1.3 5.13-1.4 7.79l-.72 19.56"/><path d="m771 454.37c4.89-9.26 4.57-20.11 2.29-30.08-2.54-11.08-7.56-21.39-10.36-32.4-2.37-9.3-3-19.71 1-28.67a24.85 24.85 0 0 1 9.07-10.71c4.3-2.81 9.23-4.41 14.16-5.73 11.45-3.07 23.07-5.83 34.73-7.93a178.2 178.2 0 0 1 18-2.4c2.21-.18 4.93-.47 6.85.88 2.18 1.53 2.33 5 2.72 7.38 2 12 2 24.26 1.12 36.34-.58 8.1-2.07 18-8.92 23.33-6.35 4.94-15.15 3.68-22.35 6.49a12.45 12.45 0 0 0 -7.65 7.49c-.92 2.66-.89 5.57-1 8.34l-.34 9.05-.32 9.05c-.06 1.5 2.28 1.5 2.33 0q.36-9.54.71-19.08c.11-2.77.13-5.72 1.54-8.21a9.4 9.4 0 0 1 3.72-3.6c3.4-1.88 7.49-2.31 11.27-2.92 4-.64 8.09-1.35 11.63-3.41 7.81-4.53 10.4-14 11.42-22.36a173.18 173.18 0 0 0 0-35.53c-.35-2.94-.74-5.91-1.35-8.81-.49-2.32-1.44-4.58-3.57-5.83s-4.5-1.25-6.76-1.11c-3.09.2-6.18.55-9.24.95-12.26 1.61-24.29 4.42-36.28 7.39-10 2.47-21.26 4.57-28.56 12.45-6.44 6.94-8.53 16.9-7.94 26.13 1.43 22.22 18.52 42.31 13.55 65.17a30.72 30.72 0 0 1 -2.72 7.61c-.42.83.82 1.56 1.25.73z"/></g><path d="m811.86 425.24a20.46 20.46 0 0 1 1.21-7.36c-2.8-3.88-6.82-6.94-11.5-7.65-3.77-.56-7.6.42-11.15 1.8a56.38 56.38 0 0 0 -18.22 11.71c2.49 10.16 3 21.12-1.87 30.27l40.81-9.21z"/><path d="m812.86 425.24a22.14 22.14 0 0 1 .79-6.07c.27-.85.6-1.33.05-2.1a18.44 18.44 0 0 0 -1.64-2 18.71 18.71 0 0 0 -8.37-5.39c-7.38-2.17-15.59 1.69-21.81 5.43a61.93 61.93 0 0 0 -10.38 7.89 1 1 0 0 0 -.26 1c2.35 9.71 3 20.39-1.77 29.51a1 1 0 0 0 1.12 1.46l35.83-8.09 5-1.12a1 1 0 0 0 .73-1q.36-9.78.73-19.56c0-1.28-1.94-1.28-2 0q-.36 9.78-.73 19.56l.73-1-35.82 8.09-5 1.12 1.12 1.46c5-9.61 4.46-20.78 2-31l-.26 1a54.48 54.48 0 0 1 19.51-12.08c3.72-1.25 7.69-1.84 11.48-.53a18 18 0 0 1 8.32 6.55l-.1-.76a22.1 22.1 0 0 0 -1.24 7.62c-.07 1.28 1.92 1.28 1.97.01z"/><path d="m511.63 550.42h-162a16.11 16.11 0 0 0 -16.11 16.11 16.1 16.1 0 0 0 11 15.27l.51.17c6.88 2.3 13.47 9.33 11 16.14-3.57 9.89-24.03 31.89-21.84 31.89" fill="#18c4ff"/><path d="m511.63 549.67-8.27-.08c-7.19-.06-14.39-.15-21.58-.18l-29.75-.1q-16.54 0-33.1 0h-31.22-24.49-12.76a18.66 18.66 0 0 0 -9.45 2.3 17.51 17.51 0 0 0 -8.32 18.5 17.27 17.27 0 0 0 5.71 9.67 17.56 17.56 0 0 0 4.84 2.92 35.13 35.13 0 0 1 4.92 2.13c3.33 2 6.61 5.29 7.15 9.3.39 2.87-1.06 5.48-2.47 7.87a137.59 137.59 0 0 1 -10.84 15c-1.74 2.22-3.51 4.43-5.24 6.65a47.08 47.08 0 0 0 -3.35 4.61c-.62 1-1 2.81.77 2.92 1.52.09 1.52-2.29 0-2.38.48 0 .94.72 1 1 .18.62-.14.09 0 .08 0 0-.12.23 0 0s.13-.25.2-.37c.39-.64.84-1.25 1.29-1.86 1.4-1.89 2.88-3.72 4.34-5.56 3.87-4.89 7.77-9.77 11.27-14.93 3.23-4.76 7-10.29 4.58-16.22a18.1 18.1 0 0 0 -7.89-8.49 31.62 31.62 0 0 0 -4.68-2 14.56 14.56 0 0 1 -4.9-3.06 14.89 14.89 0 0 1 10.61-25.75h10.81 22.7 30 32.55c10.06 0 20.12-.06 30.18-.09 7.75 0 15.5-.1 23.25-.17l11.62-.11h.52a.76.76 0 0 0 0-1.51z" fill="#18c4ff"/><path d="m584.42 422.14a2.82 2.82 0 0 0 -.1 4c36.35 7.91 82.76 19.66 111.26 45 41.42 36.86 9.67 103.53-11.06 142.47q-23.55 44.25-49.58 87.1c-1.38 2.27-2.82 4.78-2.46 7.41.62 4.52 13.94 9.65 14.28 14.2.34 4.78-4.74 7-8.58 8-5.1 1.34-18.11-.51-23.37-.12-8.21.61-16.91-.94-18.07-10.53-1.2-10 3.32-19.56 4.82-29.22 1.15-7.41 2.28-14.81 3.57-22.19a530.67 530.67 0 0 1 12.56-54.41c3.39-11.92 7.09-23.75 11-35.51 4.51-13.67 8.13-25.13 21.43-46.92-20.32.37-64.4-8.12-90.88-14.78-19.16-4.78-39.24-11.26-51.63-26.64-11.93-14.82-14.29-35.58-10.65-54.26s7.48-27.12 16.3-44" fill="#fff"/><path d="m550 261.37a234.64 234.64 0 0 0 -49.18 96.29c-3.12 12.84-1.19 7.43-5.42 19.94-1.68 5-3.73 10-3.53 15.26.28 7.19 4.88 13.68 10.74 17.86s12.89 6.35 19.86 8.13a222.28 222.28 0 0 0 49.57 6.8c6.18.15 13-.21 17.49-4.45 5.26-5 5-12.39 6.25-18.94a110.46 110.46 0 0 1 5.52-18.47 100.61 100.61 0 0 0 4.4-17.61c2.3-12.86 3-26.11.89-39.05-2.78-17.36-10.83-34.23-24.24-45.6"/><path d="m549.51 260.84a231.56 231.56 0 0 0 -42 71.17 266.88 266.88 0 0 0 -9.85 34.63 107.86 107.86 0 0 1 -3.61 11.54c-2.26 6.58-4.56 13.31-2.26 20.21 4.42 13.28 18.51 18.54 30.87 21.66a223.75 223.75 0 0 0 46.34 6.64c6.14.23 12.95.55 18.5-2.55s7.59-9 8.49-15c.47-3.13.84-6.26 1.55-9.36a104.88 104.88 0 0 1 3.13-10.78c1.28-3.69 2.72-7.3 3.74-11.08 1-3.6 1.69-7.27 2.35-10.94 2.68-14.91 3.32-30.36 0-45.24a79.72 79.72 0 0 0 -16.68-34.39 61.46 61.46 0 0 0 -6.76-6.74c-1.32-1.12-3.24.78-1.92 1.92a70 70 0 0 1 20.6 31c4.61 13.54 5.5 28 4.05 42.18a135 135 0 0 1 -4 22.1c-1.9 6.94-4.88 13.52-6.57 20.54-.75 3.16-1.2 6.34-1.65 9.54a30.11 30.11 0 0 1 -2.05 8.27c-2.7 6-8.59 8-14.73 8.39a138.64 138.64 0 0 1 -21.36-.93 220.39 220.39 0 0 1 -22.58-3.4 130.61 130.61 0 0 1 -20.68-5.54c-6-2.28-11.66-5.71-15.44-11a21 21 0 0 1 -3.73-8.42 22.39 22.39 0 0 1 .88-10.24c1.5-5.25 3.62-10.3 5.1-15.54.91-3.2 1.47-6.5 2.24-9.73 1.56-6.55 3.37-13 5.48-19.44a239.13 239.13 0 0 1 37.27-70.53q3.06-4 6.31-7.85c.61-.72-.43-1.78-1.06-1.05z"/><path d="m615.8 201.11c5 8.77.49 21.11 6.66 29.08a7.11 7.11 0 0 1 1.49 2.38c.49 1.85-.88 3.3-2.67 4.29-3.41 1.9-3.22 6.8-3.66 10.16-.46 3.54-.63 7.16-1.31 10.67-.57 3-1.83 6.05-4.29 7.88a11.11 11.11 0 0 1 -6.91 1.92c-3.65-.08-7.11-1.46-10.76-1.64-1.23-.06-2.61-.1-3.54.72a4.65 4.65 0 0 0 -1.16 2.15q-2.21 6.6-4.23 13.27a6.13 6.13 0 0 1 -1.68 3.14c-1.2 1-2.91.87-4.42.66a43.86 43.86 0 0 1 -29-17.49 4.48 4.48 0 0 1 -1.13-2.85 5.06 5.06 0 0 1 1.57-2.69 59.44 59.44 0 0 0 12.73-25.49c3.48-14.71-3.18-34 8.14-46.29a19.79 19.79 0 0 1 10.14-5.83 34.07 34.07 0 0 1 19.73 1.85c5.5 2.17 12.61 6.42 13.52 12.87" fill="#fff"/><path d="m615.14 201.5c4.21 7.78 1.23 17.15 4.27 25.25a16.93 16.93 0 0 0 1.15 2.48c.57 1 1.38 1.82 2 2.79 1.51 2.54-1.56 3.43-3 4.81-2.69 2.51-2.56 6.68-3 10-.32 2.68-.52 5.37-.88 8a19.6 19.6 0 0 1 -1.9 6.93c-2.75 5-8.33 4.93-13.27 3.9a29.77 29.77 0 0 0 -7.44-1 4.5 4.5 0 0 0 -4.32 3.35c-.93 2.59-1.73 5.25-2.56 7.88-.41 1.29-.82 2.59-1.22 3.89a17.36 17.36 0 0 1 -1.23 3.62c-1.24 2.17-4.42 1.26-6.4.87a43.79 43.79 0 0 1 -6.75-2 42.83 42.83 0 0 1 -16.74-11.52c-.72-.81-1.41-1.64-2.06-2.5s-1.82-2.17-1.24-3.49a15.46 15.46 0 0 1 2.4-3c.77-1 1.5-1.92 2.2-2.91a55.17 55.17 0 0 0 3.75-6.15 58.17 58.17 0 0 0 6.86-26c.18-8.38-.84-17 1.36-25.22a23.15 23.15 0 0 1 6.12-10.78 20.75 20.75 0 0 1 13.43-5.36 34.67 34.67 0 0 1 15.18 2.7 26.54 26.54 0 0 1 9.93 6.71 10.75 10.75 0 0 1 2.51 5.18c.18 1 1.69.58 1.55-.43-1.25-8.87-11.85-13.6-19.55-15.32a32.17 32.17 0 0 0 -15.87.17 21.24 21.24 0 0 0 -11.22 8c-5.36 7.34-5.63 16.83-5.59 25.56 0 4.49.16 9-.24 13.46a51.52 51.52 0 0 1 -3.54 14.17 56.25 56.25 0 0 1 -7.88 14.07c-1.28 1.66-3.65 3.48-3.77 5.73s2 4.43 3.37 6.07a45 45 0 0 0 24.26 14.71c2.15.49 4.71 1.15 6.91.59 2.45-.63 3.26-2.83 3.93-5q1.26-4.14 2.58-8.25l1.35-4.11c.5-1.49.94-2.48 2.68-2.54 5.38-.19 10.39 2.65 15.82 1.24 4.94-1.29 7.5-5.66 8.39-10.41.94-5 1-10.11 1.78-15.11.33-2 1-3.83 2.78-4.94s3.32-2.62 3.1-4.79a5.45 5.45 0 0 0 -1.37-2.83 15.76 15.76 0 0 1 -2-3.14 21.61 21.61 0 0 1 -1.7-6.37c-.59-4.56-.41-9.2-1.31-13.73a20.46 20.46 0 0 0 -2.22-6.11c-.48-.86-1.79-.1-1.32.77z"/><path d="m585 257.27c1.53 1.78 2.28 4.22 3.27 6.32 1.33 2.84 3.81 6.4 7.15 7 2 .36 4.11-.45 6.06-.74.76-.11 1.95-.35 2.26-1.14a24 24 0 0 0 -3.19-1.1c-3.29-1.12-4.39-1.64-6.18-4.62s-3-11.21-3.79-14.59"/><path d="m584.47 257.76c1.59 2 2.2 4.64 3.31 6.94a14.9 14.9 0 0 0 4.12 5.3 7.8 7.8 0 0 0 6.4 1.47c1.3-.22 2.61-.5 3.9-.78a3.21 3.21 0 0 0 2.34-1.51 1 1 0 0 0 -.35-1.33c-2.14-1-4.66-1.24-6.66-2.58a9.18 9.18 0 0 1 -3.19-4.67c-1.4-4.06-1.66-8.38-2.91-12.46a.92.92 0 0 0 -1.78.48c.71 4.38 1.44 9.05 3.07 13.19a11 11 0 0 0 3.47 4.87c2.08 1.54 4.74 1.76 7 2.85l-.35-1.33c-.37.7-1.73.68-2.41.81a28.72 28.72 0 0 1 -3.55.64 6.63 6.63 0 0 1 -5.27-2.53c-2.77-3.05-3.51-7.28-6.17-10.36-.59-.69-1.51.29-1 1z"/><path d="m612.14 223v-.11a2.5 2.5 0 0 0 0-.29 1.53 1.53 0 0 0 -.31-.54 1.47 1.47 0 0 0 -1-.4 2 2 0 0 0 -.34 0h-.14a2.62 2.62 0 0 0 -.45.21 2.2 2.2 0 0 0 -.68.71 2.22 2.22 0 0 0 -.27.95 1.85 1.85 0 0 0 .2 1 1.68 1.68 0 0 0 .27.37.69.69 0 0 0 .18.16 1.33 1.33 0 0 0 .19.14 1.59 1.59 0 0 0 1 .17 1.77 1.77 0 0 0 .58-.18 1.29 1.29 0 0 0 .37-.28 1.51 1.51 0 0 0 .22-.28 1.16 1.16 0 0 0 .17-.6 1.25 1.25 0 0 0 -.19-.68l-.15-.21-.21-.15-.24-.11a.77.77 0 0 0 -.4 0 .54.54 0 0 0 -.25.06.61.61 0 0 0 -.22.13.77.77 0 0 0 -.18.18.75.75 0 0 0 -.18.34l.1-.25a.2.2 0 0 1 0 .08l.16-.21-.26.34.17-.22a.76.76 0 0 1 -.09.09l.22-.17-.12.07.26-.11-.17.05h.29-.16.28-.13l.25.11a.21.21 0 0 1 -.1-.06l.21.17a.52.52 0 0 1 -.1-.11l.16.22a1.09 1.09 0 0 1 -.08-.15l.1.25a.76.76 0 0 1 -.06-.2v.27a1.4 1.4 0 0 1 0-.29v.28a2.29 2.29 0 0 1 .08-.28l-.1.24a2.68 2.68 0 0 1 .18-.33l-.15.21a.73.73 0 0 1 .17-.18l-.2.16a.94.94 0 0 1 .18-.12l-.22.1.17-.05h-.25.17-.25l.17.05-.22-.09.29.11h.08l-.21-.09a.21.21 0 0 1 .1.06l-.16-.13.08.08-.12-.16a.75.75 0 0 0 .37.31.69.69 0 0 0 .49 0 1 1 0 0 0 .34-.19.83.83 0 0 0 .23-.55z"/><path d="m614.31 217c-.07-.49-.59-.85-1-1.12-.05 0-.32-.26-.39-.24l.13.1-.32-.25a3.52 3.52 0 0 0 -.52-.21 9.75 9.75 0 0 0 -2.35-.28l.48.06h-.08l-.48 3.54c.5 0 1-.08 1.51-.08a12.8 12.8 0 0 1 1.51.12l-.49-.06h.1l.49-3.59a18.66 18.66 0 0 0 -2.59 0l-1.27.12a8.86 8.86 0 0 0 -1.69.26 1.84 1.84 0 1 0 1 3.54l.41-.12a1.67 1.67 0 0 0 1.19-1.38 1.69 1.69 0 0 0 -.79-1.65l-.37-.21-.93 3.43c.62-.06 1.23-.22 1.85-.31l-.49.07a17.61 17.61 0 0 1 3.7-.06 1.82 1.82 0 0 0 1.29-.54 1.89 1.89 0 0 0 .51-1.05 1.8 1.8 0 0 0 -1.31-2 11.71 11.71 0 0 0 -4.09 0 1.79 1.79 0 0 0 -1.17 2.43 1.69 1.69 0 0 0 1 1 1.89 1.89 0 0 0 1.61-.09h.07l-.42.18a13.93 13.93 0 0 1 1.46-.27l-.42.05h.52c.18 0 .41 0 .55-.09s.1-.05-.12 0h.37-.11.13a1.87 1.87 0 0 0 .88 0 1 1 0 0 0 .67-1.18z"/><path d="m582.11 221.94h.12c.13 0-.14-.07 0 0a.92.92 0 0 0 .21.13l.09.08.08.1c.1.1-.1-.15 0 0a2.39 2.39 0 0 1 .13.21l.06.13c0 .07-.07-.18 0 0a2.89 2.89 0 0 1 .14.58v-.21a3 3 0 0 1 0 .84v-.23.13l.08-.2s-.08.14 0 0a.32.32 0 0 1 .1-.1q.1-.07 0 0l.2-.08h-.09.22a.14.14 0 0 1 -.09 0h.22-.05l.2.09a.66.66 0 0 1 .22.22l.08.2a.15.15 0 0 1 0-.07v.23.23a.19.19 0 0 1 0-.07l-.09.2v-.06l-.14.17.06-.05-.17.13h.06l-.2.08h.08-.23.15-.23a2.3 2.3 0 0 0 .47.09.84.84 0 0 0 .76-.52.83.83 0 0 0 -.17-.91 1.31 1.31 0 0 0 -1.27-.29 1.15 1.15 0 0 0 -.82 1.07 1.08 1.08 0 0 0 .79 1 1.17 1.17 0 0 0 1.11-.32 2 2 0 0 0 .24-1.85 3.31 3.31 0 0 0 -.67-1.4 2.26 2.26 0 0 0 -1.33-.8.73.73 0 0 0 -.54.07.72.72 0 0 0 -.32.42.7.7 0 0 0 .49.86z"/><path d="m600.76 239.37a4.79 4.79 0 0 0 .49 2.59 9.26 9.26 0 0 0 1.35 2.31 8.59 8.59 0 0 0 4.08 2.92.91.91 0 0 0 .7-1.66 10.06 10.06 0 0 1 -1.92-1.08s-.17-.13-.08 0l-.23-.19-.43-.4a9.23 9.23 0 0 1 -.73-.8l-.23-.32c-.1-.15-.2-.3-.29-.45a9.7 9.7 0 0 1 -.51-1 7.89 7.89 0 0 1 -.31-.88 6.59 6.59 0 0 0 -.38-1.24.84.84 0 0 0 -1.51.2z"/><g fill="#18c4ff"><path d="m618.88 202.42c-4.76 1.67-9.43 3.59-14.16 5.33-3.81 1.4-7.91 2.54-10.49 6-3.65 4.95-2.76 12-3.06 17.85-.39 7.54-.45 15.1-.59 22.64-.05 2.41-.25 5.16-2.1 6.63-4.37 3.49-11.94.51-16.51-1.11-9.78-3.45-19.94-9.25-24.91-18.73-6.21-11.86-10.22-25.89-6.52-38.82a39.35 39.35 0 0 1 16.18-21.5 52.31 52.31 0 0 1 25.48-8.2c8.89-.61 18.34.85 26 5.67s18.55 21.87 10.63 24.22"/><path d="m618.64 201.55c-5.12 1.73-10.15 3.75-15.25 5.53-3.89 1.36-8 2.86-10.46 6.37s-2.87 8.18-2.95 12.44c-.11 5.11-.34 10.21-.47 15.32q-.1 4.2-.14 8.38a45.56 45.56 0 0 1 -.22 7.48 4.65 4.65 0 0 1 -3.78 4 13.32 13.32 0 0 1 -6-.22 65.25 65.25 0 0 1 -11.52-3.94 51 51 0 0 1 -11.3-6.55 31.35 31.35 0 0 1 -8.4-9.75 72.67 72.67 0 0 1 -5.77-14c-2.71-9.36-3.17-19.58.91-28.63 8.1-17.95 29-26.08 47.78-24.24a39.67 39.67 0 0 1 14.06 3.95 26.58 26.58 0 0 1 8 6.3 38.07 38.07 0 0 1 5.74 8.47c1 2 2.3 5 1.57 7.28a2.63 2.63 0 0 1 -1.79 1.73c-1.22.38-.7 2.3.53 1.91 6.38-2 2.73-10.21.49-14.08a41.5 41.5 0 0 0 -6.7-8.68 29.37 29.37 0 0 0 -10.08-6.33c-9.5-3.76-20.37-3.73-30.22-1.46s-18.93 7.2-25.44 14.89a38.66 38.66 0 0 0 -9.17 27.28 56.47 56.47 0 0 0 3.12 15.37 59.91 59.91 0 0 0 6.45 13.89c5.16 7.69 13.47 12.6 21.94 15.89 3.9 1.51 8 3.09 12.17 3.49s8.61-1.06 9.67-5.54a37.79 37.79 0 0 0 .51-7.74c.08-3 .13-5.91.2-8.87.12-5.32.34-10.64.46-16 .11-4.64.68-10.06 4.65-13.11a22.11 22.11 0 0 1 6-3c2.57-1 5.12-2 7.66-3 2.72-1.09 5.45-2.17 8.2-3.17 1.09-.39.64-2.13-.48-1.75z"/><path d="m541.37 266.5c2.39-2.08 4.67-4.31 6.92-6.55 1.66-1.65 2-2.06 4.23-1.39 6.88 2.07 13.62 5.36 20.13 8.37 4.86 2.25 9.69 4.52 14.54 6.79.92.43 1.92.49 2.8.87 1.85.79 1.5 1.14 1.44 3.33a58.08 58.08 0 0 1 -1.07 11.17c-.78 3.52-3.33 3.64-6.79 3.11a70.58 70.58 0 0 1 -22-7c-5.31-2.71-11.21-5.5-15.4-9.86-1.93-2-4.35-4.23-5.53-6.79a1.12 1.12 0 0 1 .36.52"/></g><path d="m541.87 267c1.76-1.48 3.48-3 5.16-4.6l2.2-2.07c.5-.47 1-1.08 1.73-1.08a8.17 8.17 0 0 1 2.4.66c1.12.37 2.24.77 3.34 1.19 2.21.84 4.39 1.77 6.55 2.74 4.13 1.86 8.23 3.81 12.33 5.74l6.38 3a39.59 39.59 0 0 0 5.92 2.64c.57.15 1.9.27 2.3.79.18.23.1.61.09.94-.09 2.12-.13 4.23-.29 6.34a22.11 22.11 0 0 1 -1 6.27 2.73 2.73 0 0 1 -2.83 1.69 28 28 0 0 1 -5.61-.71q-3-.58-6-1.43a69.51 69.51 0 0 1 -12.15-4.73 85.78 85.78 0 0 1 -11.68-6.58 38.08 38.08 0 0 1 -5-4.45 20.81 20.81 0 0 1 -4.13-5.31l-1.64 1.26.19.31c.6 1.2 2.4.14 1.8-1.06a2.86 2.86 0 0 0 -.52-.73c-.84-.91-2.13.25-1.64 1.27a20.84 20.84 0 0 0 3.89 5.16 47.44 47.44 0 0 0 4.72 4.47 69.94 69.94 0 0 0 11.58 6.87 79 79 0 0 0 12.9 5.34 71.45 71.45 0 0 0 7.1 1.76 34.38 34.38 0 0 0 6.05.9 5.58 5.58 0 0 0 4.08-1.33c1.36-1.33 1.62-3.38 1.9-5.17a63.79 63.79 0 0 0 .62-7.3c0-1.39.51-3.52-.17-4.83-.79-1.52-2.86-1.69-4.3-2.18a74.25 74.25 0 0 1 -7.14-3.3c-4.73-2.18-9.45-4.38-14.19-6.52-2.55-1.15-5.12-2.26-7.73-3.27-2.38-.91-5-2.12-7.55-2.41-2-.22-3.1 1.22-4.35 2.52-2 2.12-4.1 4.22-6.28 6.2-.68.61.31 1.56 1 1z"/><path d="m592.8 217.36c-.82 8.23-1.36 16.48-1.89 24.73q-.39 6.18-.76 12.37c-.15 2.57-.41 6-3 7.24-.87.43-.25 2 .67 1.59 2.73-1.1 3.9-3.81 4.31-6.57.61-4.08.62-8.29.86-12.4.52-9 1-18 1.26-27 0-.93-1.34-.89-1.43 0z"/><path d="m597.42 212.85c5.19-1.52 10.3-3.36 15.33-5.33 2.33-.92 4.72-1.77 7-2.82 1.74-.8 3.54-2.59 2.68-4.67a1.08 1.08 0 0 0 -2.08.57c.38 1.94-3.25 2.88-4.53 3.43-2 .89-4.11 1.73-6.19 2.56-4.17 1.67-8.38 3.27-12.57 4.9-.82.32-.52 1.62.37 1.36z"/><path d="m583.92 421.64c-1.18 1.21-1.74 3.81-.16 5a8.51 8.51 0 0 0 2.9.82l4 .94c5.16 1.18 10.3 2.4 15.43 3.7 10.85 2.74 21.63 5.79 32.22 9.43 20.44 7 41.3 16.31 57.34 31.17a57.23 57.23 0 0 1 15.35 23.3 73.33 73.33 0 0 1 3.57 26.76c-.75 19.61-7.11 38.8-14.74 56.72-8.26 19.41-18.52 38-28.7 56.4q-10.13 18.38-20.7 36.46-5.22 9-10.56 17.88-2.72 4.53-5.45 9c-1.44 2.37-3.08 4.88-3.19 7.74-.14 3.68 3.3 6 6 7.88 1.69 1.23 3.45 2.37 5.09 3.66 1.11.88 2.66 2 3.16 3.38 1.58 4.41-5.47 7-8.58 7.49-4.33.72-9 .15-13.31-.1-2.19-.13-4.38-.27-6.58-.29-1.93 0-3.85.2-5.79.16-4.16-.08-9-1-11.51-4.6-3.32-4.73-2-12-.9-17.22 1.38-6.43 3.29-12.67 4.3-19.19 2.13-13.68 4.39-27.33 7.36-40.85s6.54-27.1 10.49-40.46q5.16-17.51 11.04-34.82a176.28 176.28 0 0 1 10.17-24.19c2.77-5.36 5.79-10.58 8.93-15.73a1.2 1.2 0 0 0 -1-1.79c-14.38.22-28.94-2.32-43.06-4.77-15.8-2.74-31.54-6-47.1-9.89-16.44-4.12-33.86-9.25-46.52-21.12-13.14-12.33-17.78-30.53-16.62-48.08a115.37 115.37 0 0 1 6-28.67c3-8.83 7.23-17.12 11.53-25.35.72-1.38-1.37-2.6-2.09-1.22a195.39 195.39 0 0 0 -10.78 23.1 126 126 0 0 0 -6.46 25.63c-2.44 17.36.2 36.2 11.22 50.33s28.31 20.9 45 25.56c15.94 4.47 32.23 7.84 48.5 10.82 15.23 2.79 30.75 5.51 46.25 6 1.37 0 2.73.06 4.1 0l-1-1.78a206.64 206.64 0 0 0 -15.15 29.25c-3.58 8.74-6.38 17.81-9.25 26.79-8.64 27-16.08 54.41-20.88 82.39-1.19 7-2.22 13.93-3.34 20.89-1 6.51-3.31 12.76-4.42 19.26-.87 5.14-1.48 11.56 1.55 16.16 2.29 3.47 6.2 5.1 10.19 5.65s8.2 0 12.3.2c4.78.23 9.57.74 14.35.55 3.89-.16 8.15-1.24 11.1-3.93s3.21-6.58.5-9.42-6.39-4.73-9.45-7.21c-1.06-.87-2.57-2-2.89-3.42-.69-3.12 2.34-6.76 3.84-9.24q11-18.19 21.58-36.65c12.17-21.26 24.28-42.67 35-64.68 8.66-17.69 16.37-36.18 20.33-55.55 3.68-18 4-37.62-4.63-54.35-4.55-8.82-11.34-15.86-19.14-21.88a146.53 146.53 0 0 0 -28.06-16.66c-20.52-9.5-42.44-15.64-64.42-20.7-2.5-.57-5-1.14-7.51-1.69-1.26-.28-2.53-.53-3.8-.79a9 9 0 0 1 -1.64-.33c-1.25-.5-1.12-2-.32-2.86.61-.66-.35-1.64-1-1z"/><path d="m775.66 340.08c5.83-5.21 14.11-6.4 21.87-7.36 2.75-.34 5.67-.66 8.21.48 2.36 1.07 4 3.25 5.3 5.51a31.24 31.24 0 0 1 4 14.77 6.94 6.94 0 0 1 -.48 3.14 7.9 7.9 0 0 1 -1.95 2.29l-7.17 6.53" fill="#fff"/><path d="m544.42 293.42c16.85-7.7 36.79-5.44 54.1 1.17s32.75 17.2 48.81 26.43 33.46 17.32 52 18.11c10.71.45 21.34-1.57 32-2.84 11.52-1.39 28.47.33 40.07.69 2.29.07 4.74.23 6.55 1.64 6.86 5.34 8.15 22.3 1.23 27.93-2.37 1.93-5.37 2.88-8.3 3.74-29.28 8.66-66.58 14.84-97.12 15.1-25 .21-49-6.48-72.15-16s-45.54-22.39-56.29-45.06c-2.39-5-6.2-20.2-.9-30.91"/><path d="m544.78 294c17.93-8 38.65-4.66 56.22 2.64 18.64 7.76 35 19.77 52.74 29.28a134.2 134.2 0 0 0 27 11.32 83.77 83.77 0 0 0 29.77 2.78c9.77-.8 19.41-2.9 29.22-3.06 8.9-.14 17.78.55 26.66 1 2.07.11 4.15.14 6.22.26a7.77 7.77 0 0 1 5.38 2 16.33 16.33 0 0 1 3.94 8c1.27 5.54 1.21 13.79-3.8 17.6-3.58 2.72-8.56 3.62-12.8 4.8q-6.66 1.84-13.38 3.44-14.19 3.36-28.58 5.68t-28.89 3.52a222.52 222.52 0 0 1 -28.16.82c-20.39-.93-40.29-6.37-59.22-13.78-15.9-6.22-31.9-13.73-44.63-25.35a69.42 69.42 0 0 1 -15.08-19.41 42.49 42.49 0 0 1 -4.33-19.9 27.55 27.55 0 0 1 2.49-11.63c.7-1.46-1.47-2.74-2.18-1.28-3.62 7.48-3.4 16.32-1.65 24.28 1.59 7.21 5.18 13.63 9.64 19.48 10.42 13.67 25.37 22.95 40.8 30 18.46 8.48 38.13 15.2 58.27 18.23 19.69 3 39.75 1.58 59.42-.89a395.38 395.38 0 0 0 57.86-11.49c4.27-1.2 9-2.21 12.49-5.19a14.33 14.33 0 0 0 4.2-7.87c1.36-6.29.47-14.05-3.46-19.32a9.86 9.86 0 0 0 -3.58-3.18 16.07 16.07 0 0 0 -6.48-1.11c-4.39-.15-8.77-.43-13.15-.68-8.93-.49-18-1-26.89.05-10.9 1.32-21.81 3.38-32.83 2.71-10.17-.62-20.09-3.5-29.45-7.44-19.06-8-35.84-20.31-54.15-29.77-17.47-9-37.31-15.47-57.14-11.95a54.83 54.83 0 0 0 -13.18 4.12c-.85.39-.11 1.63.73 1.25z"/><path d="m776 340.7a40.74 40.74 0 0 1 5.18-3.13 32.45 32.45 0 0 1 5.92-2 86.2 86.2 0 0 1 12.39-1.89c2.28-.21 4.65-.18 6.65 1.07a12.63 12.63 0 0 1 4 4.7 30.06 30.06 0 0 1 3.86 13.14 7.26 7.26 0 0 1 -.41 3.7 10.06 10.06 0 0 1 -2.43 2.57c-2.15 1.94-4.46 3.79-6.42 5.92-.67.73.24 2.11 1.11 1.45 2.24-1.71 4.25-3.76 6.33-5.66 1.69-1.55 3.38-2.95 3.69-5.36.61-4.86-.8-10.29-2.75-14.69s-4.78-8.51-9.77-9.18a29.17 29.17 0 0 0 -7.46.38c-2.37.31-4.72.68-7.06 1.2-4.72 1.06-10.46 2.82-13.72 6.65-.49.58.14 1.58.86 1.12z"/><path d="m797.94 345.64c-4.78.11-9.52 3.14-11.09 7.66s.61 10.18 5 12a9.93 9.93 0 0 0 10.22-2 13.1 13.1 0 0 0 4-9.91 7.56 7.56 0 0 0 -1.59-4.93c-1.17-1.32-4.66-3-6.56-2.8"/><path d="m797.94 345a12.69 12.69 0 0 0 -11.32 6.28 11.09 11.09 0 0 0 1.06 12.21 10.12 10.12 0 0 0 12.25 2.51c4.63-2.1 7.17-7.11 7.29-12 .06-2.58-.54-5.39-2.68-7a10.21 10.21 0 0 0 -6.6-2.18c-1.09.12-1.13 1.8 0 1.74 1.7-.1 3.28.88 4.64 1.8a5.56 5.56 0 0 1 2.36 4.6c.22 3.95-1.36 8.3-4.83 10.48-3.16 2-7.46 2.05-10.18-.74a9.12 9.12 0 0 1 -1.89-9.46c1.55-4 5.78-6.43 9.9-6.87a.68.68 0 0 0 0-1.36z"/><path d="m644.55 684.67c-8.92-1.27-18.53 1.68-23.76 8.92 1.68-3.07-.63-7.1-3.84-8.52s-6.89-1-10.36-.5l-4.2.58q-.4 2.65-.83 5.33c-1.5 9.66-6 19.25-4.82 29.22 1.16 9.59 9.86 11.14 18.07 10.53 5.26-.39 18.27 1.46 23.37.12 3.84-1 8.92-3.25 8.58-8-.34-4.55-13.66-9.68-14.28-14.2-.36-2.63 1.08-5.14 2.46-7.41q4.84-8.03 9.61-16.07z"/><g fill="#18c4ff"><path d="m564 432.17c-1 2-1.75 4.17-2.69 6.22s-2 4.24-3 6.32q-3.12 6.17-6.81 12h1.72l-4.62-8.78-.63 1.54c2.67-.54 5.47-.9 8.08-1.68 1.08-.33.94-2.22-.28-2.08-2.81.35-5.6 1.14-8.36 1.73a1.07 1.07 0 0 0 -.63 1.55l4.72 8.73a1 1 0 0 0 1.72 0q3.67-6 6.78-12.29 1.49-3 2.81-6.18a55.65 55.65 0 0 0 2.54-6.52c.22-.77-1-1.31-1.32-.56z"/><path d="m551.32 463.74c-1.29 3.66.38 7.65 3.13 10.18 3.27 3 7.8 4.12 12 5.33 9.3 2.7 18.37 6.11 27.36 9.68 18 7.15 35.86 15.05 54.91 18.95 5.48 1.12 11.05 1.74 16.5 3 1.37.31 2.74.65 4.08 1.06 1.1.34 2.68.73 3 2.05.43 2.13-2.64 4-4.2 4.82a1 1 0 0 0 0 1.66 22.13 22.13 0 0 0 5.39 2.7l-.61-1.49a459 459 0 0 0 -48.65 121.74q-4.35 18.06-7.22 36.44c-.17 1.11 1.52 1.58 1.69.47a459.27 459.27 0 0 1 38.75-124.95q7.92-16.68 17.18-32.68a1 1 0 0 0 -.6-1.48 24.45 24.45 0 0 1 -5-2.41v1.66c2.62-1.45 6.83-4.85 4.47-8.21-1.14-1.64-3.47-2.09-5.27-2.57-2.49-.67-5-1.16-7.57-1.59-5-.86-10-1.6-14.94-2.74s-9.54-2.45-14.22-4c-18.86-6.07-36.79-14.68-55.56-21q-3.84-1.29-7.72-2.41c-2.55-.74-5.15-1.36-7.62-2.31-4.54-1.75-9.63-6.07-7.75-11.52.32-.93-1.15-1.32-1.48-.4z"/><path d="m634.65 695.6h.61.25.18c.09 0 .11 0 0 0 .37 0 .74.12 1.1.2.76.17 1.48.45 2.22.66a.8.8 0 0 0 .62-1.45 9.24 9.24 0 0 0 -2.47-.73 14.6 14.6 0 0 0 -2.56-.24.73.73 0 0 0 -.73.73.75.75 0 0 0 .73.73z"/><path d="m632.09 700.57a23.81 23.81 0 0 1 2.48.53c.39.1.78.23 1.17.35s.84.27 1.26.36a.8.8 0 0 0 .93-.45.78.78 0 0 0 -.32-1 10.38 10.38 0 0 0 -2.63-.79 24.56 24.56 0 0 0 -2.71-.39.7.7 0 0 0 -.18 1.38z"/><path d="m630.23 705.11 2.18.6 1.09.31a10.42 10.42 0 0 0 1.1.28.81.81 0 0 0 1-.55.8.8 0 0 0 -.55-1 8.3 8.3 0 0 0 -1.09-.28l-1.1-.27-2.2-.52a.73.73 0 0 0 -.39 1.4z"/><path d="m565.14 351c4.47 4.17 10.27 6.17 15.89 8.27 6.35 2.38 12.12 5.42 17.05 10.16.71.68 1.77-.38 1.07-1.06a45.33 45.33 0 0 0 -16.23-10c-5.86-2.22-12.08-4.05-16.78-8.39-.67-.61-1.66.38-1 1z"/></g><path d="m569.46 214.14c-2.92 3.58-5.68 7.3-8.24 11.15a1.58 1.58 0 0 0 -.39 1.22c.11.43.55.68.95.87a26.41 26.41 0 0 0 6.38 2.11 24.47 24.47 0 0 0 -2.28 7.31 1.18 1.18 0 0 0 0 .59c.27.71 1.35.3 1.91-.22a42.06 42.06 0 0 0 9.51-13.11 2 2 0 0 0 .26-1.1 1.56 1.56 0 0 0 -.48-.83c-1.84-1.88-5-1.12-7.51-1.94a34.87 34.87 0 0 0 1.93-6.19.74.74 0 0 0 -1.25 0" fill="#fff"/><path d="m745.49 751.4v-20.56h-42.66c-.05 10.7.12 20.62.52 29.43h42.14z"/><path d="m746.48 751.4v-20.56a1 1 0 0 0 -1-1h-42.65a1 1 0 0 0 -1 1c0 9.82.08 19.63.53 29.43a1 1 0 0 0 1 1h42.14a1 1 0 0 0 1-1v-8.87a1 1 0 0 0 -2 0v8.87l1-1h-42.15l1 1c-.44-9.8-.56-19.61-.52-29.43l-1 1h42.66l-1-1v20.56a1 1 0 0 0 1.99 0z"/><path d="m589.63 503.66q-43.08-2.94-86.28-3.36a8.81 8.81 0 0 0 -5 .93 6.79 6.79 0 0 0 -2.58 5c-.91 8.12 5.4 15.26 12.12 19.91a68.81 68.81 0 0 0 43.48 11.86 73.93 73.93 0 0 0 41.85-17c3.21-2.66 6.42-6.07 6.45-10.24s-5.21-8-8.39-5.34"/><path d="m589.63 502.89q-28.21-2.19-56.5-3.19c-9.43-.33-18.86-.6-28.29-.71-3.75-.05-7.71 0-9.49 3.92-1.44 3.16-1.17 7.06 0 10.28 2.47 7.07 8.6 12.18 14.79 16a69.13 69.13 0 0 0 22.33 8.77 73 73 0 0 0 46.63-6.2 75.43 75.43 0 0 0 10.31-6.12 41 41 0 0 0 8.71-7.59c2.06-2.59 3.69-6.18 2.49-9.5a7.8 7.8 0 0 0 -6.43-5.12 5.13 5.13 0 0 0 -3.65 1.26c-1 .79.34 2.52 1.35 1.76 2.25-1.71 5 .21 6.06 2.39 1.47 3-.66 6.41-2.68 8.59a47.48 47.48 0 0 1 -8.2 6.69 73.67 73.67 0 0 1 -9.46 5.49 69.87 69.87 0 0 1 -42.77 6.15 67.19 67.19 0 0 1 -20.83-7.4c-6-3.31-12-7.62-15.2-13.82a13.47 13.47 0 0 1 -1.44-9.38 4.17 4.17 0 0 1 3-3.32 22.88 22.88 0 0 1 5.73-.19c8.61.08 17.21.18 25.81.39q25.67.6 51.3 2 3.22.17 6.44.36c1 .06 1-1.45 0-1.53z"/><path d="m730.34 760.27c-6.45-56.19 4.67-202.94 15.48-258.47 2.91-14.92 6.72-29.87 14-43.21s18.43-25.06 32.61-30.55c3.55-1.38 7.38-2.36 11.15-1.8 5.6.84 10.25 5.06 13 10s3.94 10.6 5 16.17c11.42 58.51 1.5 205.59-1.04 265.38a44.42 44.42 0 0 1 -44.4 42.48h-38.41" fill="#18c4ff"/><path d="m731.08 760.27c-2.36-21.06-2-42.48-1.55-63.64.63-27.41 2.18-54.8 4.28-82.14 2-25.94 4.48-51.86 7.82-77.68 1.28-9.91 2.7-19.82 4.47-29.66 2.9-16.15 6.64-32.54 14.44-47.1 7.45-13.92 19.55-27.12 35.12-31.71 4.36-1.29 8.82-1.3 12.8 1.09a21.09 21.09 0 0 1 7.81 9c3 6.16 4 13.26 5.06 20 3.53 22.48 4 45.51 4.18 68.22.25 28-.47 56-1.49 84-.95 25.91-2.23 51.79-3.53 77.68q-.74 14.61-1.39 29.21a43.13 43.13 0 0 1 -38.75 41.24c-2.9.28-5.82.22-8.73.23-9.23 0-18.47 0-27.7.09-2.06 0-4.13 0-6.19 0a1.14 1.14 0 0 0 0 2.28c7.23 0 14.47.08 21.7.11h13.05a73.27 73.27 0 0 0 10-.42 45.7 45.7 0 0 0 39.42-41.87c.35-4.74.45-9.52.68-14.27 1.17-24.52 2.47-49 3.51-73.56 1.21-28.73 2.15-57.49 2.26-86.25.1-24.92-.17-50-2.8-74.78-.51-4.84-1.13-9.67-1.94-14.47-1.21-7.19-2.48-14.85-6.35-21.17-4.33-7.05-11.66-11.16-20-9.52-7.95 1.58-15.5 6.28-21.6 11.47-23.38 19.88-29.46 52.24-33.86 81.1-3.7 24.29-6.18 48.77-8.28 73.24-2.42 28.12-4.21 56.3-5.22 84.5-.86 24-1.36 48.13.17 72.1.27 4.24.62 8.47 1.11 12.68.11.93 1.57.94 1.47 0z" fill="#18c4ff"/><path d="m464.33 549.43h-105.26c-5 0-9.93 0-14.89 0a7.28 7.28 0 0 1 -7.42-7.37c0-1.73 0-3.45 0-5.18v-89.88c0-4.38-.08-8.77 0-13.15a7.24 7.24 0 0 1 7.14-7.14h118.52c2.56 0 5 .1 7 2.09s2.09 4.54 2.09 7.17v105.41.91a7.22 7.22 0 0 1 -7.14 7.14 1 1 0 0 0 0 2c5.39-.11 9.13-4.43 9.13-9.67v-105.94c0-2.74-.14-5.31-1.94-7.62-2.15-2.75-5.24-3.51-8.53-3.51h-118.33c-4.3 0-8.26 2.2-9.55 6.54a19.31 19.31 0 0 0 -.37 5.48v89.29 16.06a9.26 9.26 0 0 0 9.21 9.32h4.21 116.13a1 1 0 0 0 0-1.95z"/><g fill="#fff"><path d="m352.6 703.44a128.32 128.32 0 0 1 75.51-98.44c23.41-10 51.27-12.82 74.95-2.16 10.76 4.85 20.47 12.27 27.16 22.06s10.49 21.37 12.66 33c2.24 11.93 2.83 24.12 3.21 36.23q.35 11.14.42 22.31c0 7.27.45 14.54.47 21.81v10.91a1.16 1.16 0 0 0 2.32 0c1-15 1.35-30.08 1-45.12-.29-13.25-.64-26.57-2.52-39.71-1.72-12.07-4.81-24.12-10.88-34.78a69 69 0 0 0 -25.15-25.44c-23.35-13.66-52-13.12-77-4.35a128.87 128.87 0 0 0 -82.32 95.77c-.49 2.56-.89 5.15-1.21 7.74-.1.76 1.25 1 1.36.18z"/><path d="m547.1 757.39a1.55 1.55 0 0 0 .69.86 1.75 1.75 0 0 0 1 .24 2.11 2.11 0 0 0 1.74-.93 1.62 1.62 0 0 0 .18-1.27.82.82 0 0 0 -1.58.44v.11-.21a1.27 1.27 0 0 1 0 .2v-.21a.67.67 0 0 1 -.05.19l.08-.2a.88.88 0 0 1 -.12.21l.13-.17a1.23 1.23 0 0 1 -.25.26l.16-.13a1.5 1.5 0 0 1 -.32.19l.19-.08a1.82 1.82 0 0 1 -.38.11h.2a1.37 1.37 0 0 1 -.35 0h.2a1 1 0 0 1 -.23-.06l.18.07a.72.72 0 0 1 -.19-.11l.14.11a.53.53 0 0 1 -.13-.13l.11.15-.1-.17a.69.69 0 0 0 -.41-.32.72.72 0 0 0 -.46 0 .69.69 0 0 0 -.4.82z"/><path d="m489.13 698.2a1.61 1.61 0 0 0 -2.22-1 2.55 2.55 0 0 0 -1.49 2.81 54.73 54.73 0 0 0 1.77 8.77c.73 3 1.61 5.86 2.62 8.73a52.16 52.16 0 0 0 3.54 8.53c.74 1.31 3 .44 2.48-1-1.5-4.43-3.45-8.67-4.8-13.15-.68-2.24-1.3-4.49-1.84-6.77-.26-1.06-.49-2.12-.71-3.19q-.19-.92-.36-1.83c-.13-.65-.21-.6.35-.74a1 1 0 0 0 .66-1.15z"/><path d="m463.16 698.2a1.61 1.61 0 0 0 -2.22-1 2.55 2.55 0 0 0 -1.49 2.81 54.73 54.73 0 0 0 1.77 8.77c.73 3 1.61 5.86 2.62 8.73a52.16 52.16 0 0 0 3.54 8.53c.74 1.31 3 .44 2.48-1-1.5-4.43-3.45-8.67-4.8-13.15-.68-2.24-1.3-4.49-1.84-6.77-.26-1.06-.49-2.12-.71-3.19q-.19-.92-.36-1.83c-.13-.65-.21-.6.35-.74a1 1 0 0 0 .66-1.15z"/><path d="m437.19 698.2a1.61 1.61 0 0 0 -2.22-1 2.55 2.55 0 0 0 -1.49 2.81 57 57 0 0 0 1.77 8.77c.73 3 1.62 5.86 2.62 8.73a52.16 52.16 0 0 0 3.54 8.53c.74 1.31 3 .44 2.48-1-1.5-4.43-3.45-8.67-4.8-13.15-.68-2.24-1.3-4.49-1.84-6.77-.26-1.06-.49-2.12-.71-3.19q-.19-.92-.36-1.83c-.12-.65-.2-.6.35-.74a1 1 0 0 0 .66-1.15z"/><path d="m806.72 437.76c.72 35.5-.4 71.06-1.84 106.53-1.44 35.31-3.21 70.61-4.58 105.92-.78 20-1.35 40-1.52 60a.93.93 0 0 0 1.38.8c1.25-.62 2.32 1.11 2.4 2.16a5.54 5.54 0 0 1 -1.46 3.39c-1.38 1.88-2.77 3.57-3.46 5.85a13.47 13.47 0 0 0 2.43 12.35c.62.76 2-.27 1.37-1a12.17 12.17 0 0 1 -2.51-7.85c.11-3.17 1.56-5.48 3.42-7.92 1.39-1.82 2.66-4 1.67-6.33-.83-1.92-2.78-3.18-4.79-2.19l1.39.79c.31-35.54 1.92-71 3.72-106.54 1.79-35.29 3.66-70.59 4.23-105.92q.48-30-.47-60a.69.69 0 0 0 -1.38 0z"/><path d="m800.06 740.07a14.45 14.45 0 0 0 .24 5.82.73.73 0 0 0 1.4-.39 12.79 12.79 0 0 1 -.35-5.08.68.68 0 0 0 -.47-.82.67.67 0 0 0 -.82.47z"/><path d="m764.63 383.17c1.39 4.58 2.86 9.14 4.32 13.7.31 1 1.84.55 1.52-.42-1.49-4.55-3-9.11-4.54-13.64-.28-.81-1.55-.48-1.3.36z"/><path d="m781.2 400.79a.82.82 0 0 0 0-1.63.82.82 0 0 0 0 1.63z"/><path d="m842 655.8a131.66 131.66 0 0 1 12.45 11.51 103.48 103.48 0 0 1 24 44.28 108.12 108.12 0 0 1 3.09 19c.07 1 1.65 1 1.61 0-.92-23.05-10.72-45.8-26.1-62.9a84.44 84.44 0 0 0 -14.24-13c-.65-.45-1.46.59-.85 1.1z"/><path d="m882.68 740a5.76 5.76 0 0 0 8.68-1.48.89.89 0 1 0 -1.54-.9 2.51 2.51 0 0 1 -.46.68 3 3 0 0 1 -.61.54 3.76 3.76 0 0 1 -1.69.68h-.22-.6-.48-.11-.22a3.25 3.25 0 0 1 -1.48-.75.93.93 0 0 0 -1.27 0 .91.91 0 0 0 0 1.27z"/></g><g fill="#18c4ff"><path d="m351.41 508.92c8 .15 16.09.19 24.13.24a.94.94 0 0 0 0-1.87c-8 0-16.09.09-24.13.24a.7.7 0 0 0 0 1.39z"/><path d="m351.41 519.89c8 .15 16.09.2 24.13.24a.93.93 0 0 0 0-1.86c-8 0-16.09.08-24.13.24a.69.69 0 0 0 0 1.38z"/><path d="m351.41 530.86c8 .16 16.09.2 24.13.24a.93.93 0 0 0 0-1.86c-8 0-16.09.09-24.13.24a.69.69 0 0 0 0 1.38z"/><path d="m203.26 327.1a193 193 0 0 0 52-.24.87.87 0 0 0 .52-1.28c-3.51-4.62-3.5-11.69.49-16.05a12.72 12.72 0 0 1 15.55-2.19c.69.41 1.82-.29 1.47-1.13-4.49-10.86-8.24-23-5.85-34.85 2-9.68 8-19 17.78-22.09 10.62-3.41 22.34.34 32 5a86.3 86.3 0 0 1 24 17.54 85.25 85.25 0 0 1 18.23 28.19 1.22 1.22 0 0 0 2.34-.65c-1.14-7-2.28-16.84 5.57-20.5 3.29-1.53 6.46-.3 8.73 2.34 2.61 3 4.43 6.92 6.46 10.36l8 13.53a1.28 1.28 0 0 0 2.3-.3 15.86 15.86 0 0 1 13.46-10.94 16.33 16.33 0 0 1 15.45 8.73c.62 1.16 2.25.14 1.73-1a17.86 17.86 0 0 0 -17.53-10.21 18.36 18.36 0 0 0 -15.53 12.76l2.3-.3-8.13-13.74c-1.32-2.22-2.61-4.45-3.94-6.65a24.29 24.29 0 0 0 -3.56-4.8 9.29 9.29 0 0 0 -10.2-2.23 13.26 13.26 0 0 0 -7.43 8.06c-1.71 5-.84 10.45 0 15.55l2.34-.65a88.94 88.94 0 0 0 -41.36-46.07c-9.81-5.11-21.37-9.18-32.54-7.05-10.67 2-18.27 10.5-21.46 20.57-4.22 13.33-.23 27.47 5 39.91l1.47-1.13a14.18 14.18 0 0 0 -18.42 21l.39-1.45a185.29 185.29 0 0 1 -51.58.56c-.87-.11-.86 1.25 0 1.36z"/><path d="m157.66 585a128.84 128.84 0 0 1 38.28 2.46c.87.19 1.54-1.1.64-1.53-4.64-2.17-3.66-8.88-.67-12 5-5.23 13.75-2.07 19 1 .79.46 1.92-.51 1.33-1.34-8.8-12.34-3.38-29.5 4.24-41a25.36 25.36 0 0 1 7.37-7.75 12.22 12.22 0 0 1 10.75-1.17 38.14 38.14 0 0 1 10.09 5.75 57.15 57.15 0 0 1 8.25 7.45 58 58 0 0 1 12.39 21.13 1.14 1.14 0 0 0 1.36.78c2.91-.6 3.93-3.55 5.31-5.8a4.48 4.48 0 0 1 3.71-2.57 7.89 7.89 0 0 1 4.61 1.83c4.95 3.63 8.09 13.07 15.72 11.23 1.11-.27.61-1.82-.47-1.68-3.59.5-6.4-2.72-8.41-5.24-2.25-2.83-4.25-5.77-7.62-7.39-2.9-1.4-6.25-1.35-8.45 1.27-1.55 1.85-2.35 5.67-5 6.21l1.36.78a60.46 60.46 0 0 0 -11.45-20.49c-5.1-6-11.66-11.56-18.94-14.73-3.72-1.62-7.8-2.21-11.66-.69a21.38 21.38 0 0 0 -8.72 7 54.38 54.38 0 0 0 -10 21.38c-1.85 8.37-1.3 17.44 3.84 24.58l1.33-1.34c-6.11-3.49-16.24-6.63-21.65-.16-3.43 4.1-4.1 11.79 1.51 14.36l.64-1.52a129.73 129.73 0 0 0 -38.72-2.19c-.85.08-.87 1.42 0 1.34z"/><path d="m716.88 275.07c11.16-.05 22.33-.21 33.49-.13a.91.91 0 0 0 .64-1.54c-3.69-3.38-1.94-9.33 1.43-12.27 4.77-4.16 12.32-2.83 17.86-1.39a1.05 1.05 0 0 0 1.31-1c.11-10.72 2.89-22.81 13.08-28.34a16.13 16.13 0 0 1 13.88-1.05c4.11 1.72 7.15 5.18 9.41 8.92a64 64 0 0 1 6 14.49c.35 1.15 2.25 1 2.17-.29-.37-5.45 6.92-7.29 11-5.59 6.15 2.55 7.91 10.84 9.19 16.6a1.11 1.11 0 0 0 1.84.49c6.75-7 18.91-6.72 25.56.24 1 1 2.42-.49 1.51-1.5-7.25-8-21.17-8-28.63-.3l1.84.49c-1.3-5.84-2.91-12.41-7.77-16.37a11.39 11.39 0 0 0 -13.53-.49 7.25 7.25 0 0 0 -3.25 6.43l2.17-.3c-2.74-8.93-6.55-19.81-15.51-24.28-10.34-5.17-21.93 1.44-26.86 10.94-3.18 6.11-4.13 13.1-4.19 19.91l1.31-1c-6.48-1.66-15-2.84-20.27 2.4-3.72 3.72-5.28 10.72-.85 14.52l.64-1.53c-11.16.3-22.33.38-33.49.56a.69.69 0 0 0 0 1.37z"/><path d="m884.51 547.36h4a.81.81 0 0 0 0-1.62h-4a.82.82 0 0 0 0 1.64z"/><path d="m77.17 393.1 136.94.09q68.11 0 136.24 0 38.43 0 76.85-.06a.85.85 0 0 0 0-1.69c-45.65-.12-91.29-.06-136.94-.05q-68.12 0-136.23.06h-76.86a.79.79 0 0 0 0 1.57z"/><path d="m201.9 433.23 91 .11c8.56 0 17.12.1 25.68 0a.82.82 0 0 0 0-1.63c-15.2-.13-30.42 0-45.62 0l-45.38.05h-25.67a.69.69 0 0 0 0 1.37z"/><path d="m256.4 462.53 9.38 9.4a.69.69 0 0 0 1-1l-9.4-9.38a.68.68 0 0 0 -1 1z"/></g><path d="m834.14 337.26a345.16 345.16 0 0 1 3.86 53.35q0 3.67-.18 7.33c-.1 2.59-.41 5.22-.34 7.81 0 1.13 1.87 1.49 2 .28a100.79 100.79 0 0 0 .64-13.46c.08-4.48.07-9-.08-13.45-.31-9.12-1-18.24-2.23-27.29-.65-5-1.43-10-2.44-14.93-.17-.85-1.39-.46-1.28.36z" fill="#fff"/></svg>