<?xml version="1.0" ?><svg id="Layer_1" style="enable-background:new 0 0 120 120;" version="1.1" viewBox="0 0 120 120" xml:space="preserve" xmlns="http://www.w3.org/2000/svg" xmlns:xlink="http://www.w3.org/1999/xlink"><style type="text/css">
	.st0{fill:#80CE8F;}
	.st1{opacity:0.4;fill:#424242;}
	.st2{fill:#424242;}
	.st3{fill:#84C6FF;}
	.st4{fill:#FF957F;}
	.st5{fill:#42A0E5;}
	.st6{fill:#FFFFFF;}
	.st7{fill:#FFD460;}
	.st8{fill:#C6EBFF;}
	.st9{fill:#FFBE75;}
	.st10{fill:#FF8F3D;}
</style><g><circle class="st0" cx="32.2" cy="39.2" r="11.5"/><path class="st1" d="M31,45.4c-0.1,0-0.2,0-0.3,0c-1.6-0.1-3.1-0.9-3.8-1.7c-2.8-3.3-1.9-6.9,0.1-8.9c2.3-2.2,5.6-2.5,8.5-0.7   c1.9,1.2,3.1,2.9,3.5,4.8c0.4,1.7,0,3.6-1,5.1c-0.2,0.2-0.5,0.3-0.7,0.1c-0.2-0.2-0.3-0.5-0.1-0.7c0.8-1.3,1.1-2.8,0.8-4.3   c-0.3-1.7-1.4-3.1-3.1-4.2c-1.9-1.2-4.9-1.8-7.2,0.5c-1.7,1.7-2.4,4.7,0,7.5c0.4,0.5,1.7,1.3,3.1,1.4c0.9,0.1,1.6-0.2,2.1-0.7   c1.1-1,1.6-2,1.5-2.8c-0.3-1.5-2.3-2.4-2.3-2.4c-0.3-0.1-0.4-0.4-0.3-0.7c0.1-0.3,0.4-0.4,0.7-0.3c0.1,0,2.6,1.1,2.9,3.1   c0.2,1.2-0.4,2.5-1.8,3.7C32.9,45.1,32,45.4,31,45.4z"/><path class="st2" d="M19.5,75.3l-2.9-0.8c-1.5-0.4-2.3-1.9-2-3.3l3.5-13.5c0.4-1.5,1.9-2.3,3.3-2l2.9,0.8c1.5,0.4,2.3,1.9,2,3.3   l-3.5,13.5C22.4,74.8,21,75.6,19.5,75.3z"/><path class="st3" d="M22.3,72.8c-0.6,3-2.5,12-2.5,12c-0.1,0.6-0.2,1.1-0.1,1.7c0,0.3,0,0.6,0.1,0.9c0.5,3.2,3.3,5.7,6.8,5.7h69.5   c3.9,0,7.2-2.3,8.6-5.7c0.1-0.3,0.2-0.6,0.3-0.9c0.3-0.9,0.4-1.8,0.4-2.8V71.5c0-1.4-0.3-2.7-0.9-3.9c-1.5-3.2-4.7-5.4-8.5-5.4   H83.2c-0.9,0-1.6-0.6-1.8-1.5c0,0-3.4-8.1-4.3-10.9c-1.3-4.2-4.8-7.3-9.2-7.3H37.2c-5.6,0-8.6,3.9-9.6,9.4L22.3,72.8"/><path class="st4" d="M25.4,83.1h-5.3c-0.7,0-1.3-0.7-1.1-1.4l1.5-6.6c0.1-0.5,0.6-0.9,1.1-0.9h5.3c0.7,0,1.3,0.7,1.1,1.4l-1.5,6.6   C26.4,82.7,25.9,83.1,25.4,83.1z"/><path class="st5" d="M104.7,87.4c-1.4,3.4-4.8,5.7-8.6,5.7H26.6c-3.5,0-6.2-2.5-6.8-5.7H104.7z"/><g><g><circle class="st2" cx="40.7" cy="89.8" r="9.7"/><circle class="st6" cx="40.7" cy="89.8" r="4.4"/></g><g><circle class="st2" cx="82.4" cy="89.8" r="9.7"/><circle class="st6" cx="82.4" cy="89.8" r="4.4"/></g></g><path class="st7" d="M105.5,71.5v0.7c-0.3,0-0.7,0.1-1,0.1c-5,0-9-4-9-9c0-0.4,0-0.8,0.1-1.1h0.5c3.8,0,7,2.2,8.5,5.4   C105.2,68.8,105.5,70.1,105.5,71.5z"/><g><path class="st8" d="M48.3,62.2h9.6c0.9,0,1.6-0.7,1.6-1.6V49.4c0-0.9-0.7-1.6-1.6-1.6h-9.6c-0.9,0-1.6,0.7-1.6,1.6v11.2    C46.7,61.5,47.4,62.2,48.3,62.2z"/><path class="st8" d="M75.5,59.2l-3.4-9.9c-0.3-0.9-1.2-1.5-2.1-1.5h-5.7c-0.9,0-1.6,0.7-1.6,1.6v11.2c0,0.9,0.7,1.6,1.6,1.6h9.1    C74.9,62.2,76,60.6,75.5,59.2z"/><path class="st8" d="M43.5,49.4c0-0.9-0.7-1.6-1.6-1.6h-6.8c-1.1,0-2.1,0.8-2.2,1.9l-2.4,9.9c-0.2,1.3,0.9,2.5,2.2,2.5h9.1    c0.9,0,1.6-0.7,1.6-1.6V49.4z"/></g><path class="st8" d="M58.3,68.3h-3.4c-0.6,0-1.2-0.5-1.2-1l0,0c0-0.6,0.5-1,1.2-1h3.4c0.6,0,1.2,0.5,1.2,1l0,0   C59.4,67.8,58.9,68.3,58.3,68.3z"/><path class="st8" d="M74.4,68.3H71c-0.6,0-1.2-0.5-1.2-1l0,0c0-0.6,0.5-1,1.2-1h3.4c0.6,0,1.2,0.5,1.2,1l0,0   C75.6,67.8,75.1,68.3,74.4,68.3z"/><path class="st9" d="M58.9,21.1H45.2c-1.2,0-2.2,1-2.2,2.2v9.9c0,1.2,1,2.2,2.2,2.2h13.7c1.2,0,2.2-1,2.2-2.2v-9.9   C61.1,22,60.1,21.1,58.9,21.1z"/><path class="st7" d="M66.9,28.2H42.8c-1.6,0-2.9,1.3-2.9,2.9v8.5c0,1.6,1.3,2.9,2.9,2.9h24.1c1.6,0,2.9-1.3,2.9-2.9v-8.5   C69.8,29.5,68.5,28.2,66.9,28.2z"/><g><path class="st10" d="M48.7,21.1c0-0.3-0.3-0.6-0.6-0.6h-0.3c-0.3,0-0.6,0.3-0.6,0.6v7.1h0.8v14.3h1.5V28.2h-0.8V21.1z"/><path class="st10" d="M57.5,28.2v-7.1c0-0.3-0.3-0.6-0.6-0.6h-0.3c-0.3,0-0.6,0.3-0.6,0.6v7.1h0.8v14.3h1.5V28.2H57.5z"/></g></g></svg>