<?xml version="1.0" ?><svg id="Layer_1" style="enable-background:new 0 0 120 120;" version="1.1" viewBox="0 0 120 120" xml:space="preserve" xmlns="http://www.w3.org/2000/svg" xmlns:xlink="http://www.w3.org/1999/xlink"><style type="text/css">
	.st0{fill:#D8AE8F;}
	.st1{fill:#EABF9B;}
	.st2{fill:#F9D4B9;}
</style><g><path class="st0" d="M65.4,101.9H54.6V19.8c0-0.9,0.7-1.7,1.7-1.7h7.5c0.9,0,1.7,0.7,1.7,1.7V101.9z"/><path class="st1" d="M90.6,38.6H29.4c-0.3,0-0.6-0.1-0.8-0.3l-6.6-5.8c-0.6-0.5-0.6-1.4,0-1.9l6.6-5.8c0.2-0.2,0.5-0.3,0.8-0.3   h61.2c0.3,0,0.6,0.1,0.8,0.3l6.6,5.8c0.6,0.5,0.6,1.4,0,1.9l-6.6,5.8C91.2,38.5,90.9,38.6,90.6,38.6z"/><path class="st1" d="M85.3,52.2l-46,5.3c-0.3,0-0.6-0.1-0.8-0.3l-4.5-4C33.7,53,33.7,52.4,34,52l3.4-4.9c0.2-0.2,0.4-0.4,0.7-0.4   l46-5.3c0.6-0.1,1.1,0.3,1.1,0.9l1,8.9C86.3,51.7,85.9,52.2,85.3,52.2z"/><path class="st1" d="M38.5,68.7l37.9,5.1c0.1,0,0.2,0,0.2-0.1l4.9-3.3c0.2-0.1,0.2-0.4,0.1-0.5l-3.9-4.4c-0.1-0.1-0.1-0.1-0.2-0.1   l-37.9-5.1c-0.2,0-0.4,0.1-0.4,0.3l-1,7.7C38.2,68.5,38.3,68.7,38.5,68.7z"/><circle class="st2" cx="60" cy="31.1" r="1.9"/><circle class="st2" cx="60" cy="49.4" r="1.9"/><circle class="st2" cx="60" cy="67" r="1.9"/></g></svg>