<?xml version="1.0" ?><svg id="Layer_1" style="enable-background:new 0 0 120 120;" version="1.1" viewBox="0 0 120 120" xml:space="preserve" xmlns="http://www.w3.org/2000/svg" xmlns:xlink="http://www.w3.org/1999/xlink"><style type="text/css">
	.st0{fill:#66BAED;}
	.st1{fill:#7FDCFF;}
	.st2{fill:#FFFFFF;}
	.st3{fill:#FFDA75;}
	.st4{fill:#70C4FF;}
</style><g><g><path class="st0" d="M79.6,101l-33.5-8.8c-2.7-0.7-4.3-3.5-3.6-6.1l16.6-63.6c0.7-2.7,3.5-4.3,6.1-3.6l33.5,8.8    c2.7,0.7,4.3,3.5,3.6,6.1L85.8,97.5C85.1,100.1,82.3,101.8,79.6,101z"/><path class="st1" d="M93.1,41c-1.1-0.8-2.5-1.1-3.8-1l-6.9,1.3l-7.1-8.5l-4.8,0.6l5.3,9.1l-9.3,1.7l-1.4-2.2l-3.7,0.4l2.3,4.2    l-1.1,4.6l3.7-0.4l0.7-2.5l9.4-0.8l-2.8,10.1l4.7-0.6l4.8-10.1l7-0.5c1.4-0.1,2.6-0.8,3.5-1.9C94.2,43.3,94.1,41.8,93.1,41z"/><g><path class="st2" d="M89.7,66.4l-3.2-0.8c-0.2-0.1-0.4-0.3-0.3-0.5c0.1-0.2,0.3-0.4,0.5-0.3l3.2,0.8c0.2,0.1,0.4,0.3,0.3,0.5     C90.2,66.3,90,66.4,89.7,66.4z M83.3,64.7l-3.2-0.8c-0.2-0.1-0.4-0.3-0.3-0.5c0.1-0.2,0.3-0.4,0.5-0.3l3.2,0.8     c0.2,0.1,0.4,0.3,0.3,0.5C83.8,64.6,83.5,64.7,83.3,64.7z M76.9,63l-3.2-0.8c-0.2-0.1-0.4-0.3-0.3-0.5c0.1-0.2,0.3-0.4,0.5-0.3     l3.2,0.8c0.2,0.1,0.4,0.3,0.3,0.5C77.3,62.9,77.1,63.1,76.9,63z M70.4,61.3l-3.2-0.8c-0.2-0.1-0.4-0.3-0.3-0.5     c0.1-0.2,0.3-0.4,0.5-0.3l3.2,0.8c0.2,0.1,0.4,0.3,0.3,0.5C70.9,61.2,70.6,61.4,70.4,61.3z M64,59.6l-3.2-0.8     c-0.2-0.1-0.4-0.3-0.3-0.5s0.3-0.4,0.5-0.3l3.2,0.8c0.2,0.1,0.4,0.3,0.3,0.5S64.2,59.7,64,59.6z M57.5,57.9l-3.2-0.8     c-0.2-0.1-0.4-0.3-0.3-0.5c0.1-0.2,0.3-0.4,0.5-0.3l3.2,0.8c0.2,0.1,0.4,0.3,0.3,0.5C58,57.9,57.7,58,57.5,57.9z"/></g><g><path class="st3" d="M56.4,71.3c-0.5-0.1-1.1,0.2-1.2,0.7l-3.5,13.5c-0.1,0.5,0.2,1.1,0.7,1.2s1.1-0.2,1.2-0.7l3.5-13.5     C57.3,72,56.9,71.5,56.4,71.3z"/><path class="st3" d="M58.1,64.9c-0.5-0.1-1.1,0.2-1.2,0.7L56.2,68c-0.1,0.5,0.2,1.1,0.7,1.2s1.1-0.2,1.2-0.7l0.6-2.4     C59,65.6,58.6,65,58.1,64.9z"/><path class="st3" d="M64.6,73.5c-0.5-0.1-1.1,0.2-1.2,0.7l-3.5,13.5c-0.1,0.5,0.2,1.1,0.7,1.2s1.1-0.2,1.2-0.7l3.5-13.5     C65.4,74.2,65.1,73.6,64.6,73.5z"/><path class="st3" d="M66.3,67c-0.5-0.1-1.1,0.2-1.2,0.7l-0.6,2.4c-0.1,0.5,0.2,1.1,0.7,1.2s1.1-0.2,1.2-0.7l0.6-2.4     C67.1,67.7,66.8,67.1,66.3,67z"/><path class="st3" d="M72.8,75.6c-0.5-0.1-1.1,0.2-1.2,0.7L68,89.8c-0.1,0.5,0.2,1.1,0.7,1.2s1.1-0.2,1.2-0.7l3.5-13.5     C73.6,76.3,73.3,75.8,72.8,75.6z"/><path class="st3" d="M74.5,69.1c-0.5-0.1-1.1,0.2-1.2,0.7l-0.6,2.4c-0.1,0.5,0.2,1.1,0.7,1.2c0.5,0.1,1.1-0.2,1.2-0.7l0.6-2.4     C75.3,69.8,75,69.3,74.5,69.1z"/><path class="st3" d="M80.9,77.8c-0.5-0.1-1.1,0.2-1.2,0.7L76.2,92c-0.1,0.5,0.2,1.1,0.7,1.2s1.1-0.2,1.2-0.7L81.7,79     C81.8,78.5,81.5,77.9,80.9,77.8z"/><path class="st3" d="M82.6,71.3c-0.5-0.1-1.1,0.2-1.2,0.7l-0.6,2.4c-0.1,0.5,0.2,1.1,0.7,1.2s1.1-0.2,1.2-0.7l0.6-2.4     C83.5,72,83.2,71.4,82.6,71.3z"/></g></g><g><path class="st4" d="M62.1,96.1l-34.4,3.3c-2.8,0.3-5.2-1.8-5.5-4.5l-4.8-50.1c-0.3-2.8,1.8-5.2,4.5-5.5L56.3,36    c2.8-0.3,5.2,1.8,5.5,4.5l4.8,50.1C66.9,93.4,64.9,95.8,62.1,96.1z"/><g><path class="st2" d="M51.8,56.4l-0.2,0l-5.8,0.6c0.3,1.2,0.5,2.4,0.6,3.7c0.1,1.5,0.2,2.9,0.1,4.3l5.8-0.6l0.1,0     c0.4-1.4,0.5-2.8,0.4-4.3C52.7,58.7,52.4,57.5,51.8,56.4z"/><path class="st2" d="M36.3,61.6c-0.1-1.3-0.2-2.5-0.1-3.8l-5.8,0.6l-0.2,0c-0.3,1.2-0.4,2.5-0.3,3.8c0.1,1.5,0.6,2.9,1.2,4.1     l0.1,0l5.8-0.6C36.7,64.5,36.5,63.1,36.3,61.6z"/><path class="st2" d="M37,61.6c0.1,1.5,0.4,2.9,0.7,4.2l8-0.8c0.1-1.4,0.1-2.8-0.1-4.3c-0.1-1.3-0.3-2.5-0.6-3.7l-8.2,0.8     C36.9,59,36.9,60.3,37,61.6z"/><path class="st2" d="M51.4,55.7c0-0.1-0.1-0.2-0.1-0.3c-1.8-3.1-5-5.3-8.7-5.7c1.3,1.7,2.3,4,3,6.6L51.4,55.7z"/><path class="st2" d="M44.9,56.3c-0.7-2.7-1.9-5-3.2-6.7c-0.5,0-1,0-1.5,0c-0.5,0-1,0.1-1.5,0.2c-1,1.9-1.6,4.4-1.8,7.2L44.9,56.3     z"/><path class="st2" d="M37.9,50.1c-3.5,1.1-6.3,3.9-7.5,7.3c0,0.1,0,0.2,0,0.3l5.8-0.6C36.5,54.5,37,52.1,37.9,50.1z"/><path class="st2" d="M31.5,67.1c1.8,3,5,5.1,8.6,5.5c-1.2-1.6-2.2-3.7-2.9-6.1L31.5,67.1z"/><path class="st2" d="M38,66.4c0.7,2.5,1.8,4.6,3.1,6.2c0.5,0,1,0,1.5,0c0.5,0,1-0.1,1.4-0.2c0.9-1.8,1.6-4.1,1.8-6.7L38,66.4z"/><path class="st2" d="M44.8,72.1c3.5-1.1,6.2-3.7,7.4-7.1l-5.7,0.6C46.2,68.1,45.7,70.3,44.8,72.1z"/></g><path class="st2" d="M53.4,87.2L34.5,89c-0.7,0.1-1.3-0.4-1.4-1.1l0,0c-0.1-0.7,0.4-1.3,1.1-1.4l18.9-1.8c0.7-0.1,1.3,0.4,1.4,1.1    l0,0C54.6,86.5,54.1,87.1,53.4,87.2z"/></g></g></svg>